<svg id="Layer_1" data-name="Layer 1" xmlns="http://www.w3.org/2000/svg" viewBox="0 0 339.56 259.99"><defs><style>.cls-1{fill:#fbbe13;}.cls-2{fill:#fdce07;}.cls-3{fill:#574702;opacity:0.1;}.cls-4{fill:#c7c5cb;}.cls-5{fill:#afadb3;}.cls-6{fill:#d8d8da;}</style></defs><path class="cls-1" d="M228.07,13.43H193.54a98.63,98.63,0,0,0-98.63,98.63v37.5H326.7v-37.5a98.63,98.63,0,0,0-98.63-98.63Z" transform="translate(-1 -1)"/><path class="cls-2" d="M244.4,101.8l.53,0A4.14,4.14,0,0,0,249,98.2l10.1-79.78q-3.94-1.3-8-2.28a3.35,3.35,0,0,0-.11.55L240.81,97.16a4.15,4.15,0,0,0,3.59,4.64Z" transform="translate(-1 -1)"/><path class="cls-2" d="M172.57,98.2a4.14,4.14,0,0,0,4.11,3.63l.53,0a4.15,4.15,0,0,0,3.59-4.64L170.61,16.59a3.4,3.4,0,0,0-.09-.46q-4.1,1-8.05,2.29l10.1,79.78Z" transform="translate(-1 -1)"/><path class="cls-2" d="M232.57,1H189a11.25,11.25,0,0,0-11.28,12.57L188.19,96A17.87,17.87,0,0,0,206,111.26h9.67A17.87,17.87,0,0,0,233.42,96l10.43-82.47A11.25,11.25,0,0,0,232.57,1Z" transform="translate(-1 -1)"/><path class="cls-2" d="M331.87,123H89.74a8.69,8.69,0,0,0-8.69,8.69v9.15a8.69,8.69,0,0,0,8.69,8.69H331.87a8.69,8.69,0,0,0,8.69-8.69v-9.15a8.69,8.69,0,0,0-8.69-8.69Z" transform="translate(-1 -1)"/><path class="cls-3" d="M111,140.87v-9.15a8.69,8.69,0,0,1,8.69-8.69h5.17v-11a98.67,98.67,0,0,1,67.56-93.64h0c2.62-.87,5.28-1.62,8-2.27h0q3.64-.87,7.38-1.46l-.14-1.1A11.25,11.25,0,0,1,219,1H189a11.25,11.25,0,0,0-11.28,12.57l.14,1.1q-3.74.59-7.38,1.46h0c-2.71.65-5.38,1.4-8,2.27h0a98.67,98.67,0,0,0-67.56,93.64v11H89.74a8.69,8.69,0,0,0-8.69,8.69v9.15a8.69,8.69,0,0,0,8.69,8.69h30A8.69,8.69,0,0,1,111,140.87Z" transform="translate(-1 -1)"/><path class="cls-4" d="M61.6,236.78a9,9,0,1,1-8.94-9.08,9,9,0,0,1,8.94,9.08ZM42.5,1.38l-4.44-.23S1.22,14.43,1,43.34A23.88,23.88,0,0,0,6.1,58.6L27.85,85.89c5.69,8.52,8.48,21,8,31.18L30.08,240c-.53,11.3,11.19,20.86,22.76,21h0c11.57.09,22.91-9.3,22.44-20.61L70.73,113.81c-.33-7.91,1.36-18.28,4.88-25.33,4.29-8.6,10.16-20.37,14-28,2.13-4.2-.36-9.15-5.39-10.78L32.94,32.94,44.59,4.28c.71-1.31-.37-2.81-2.09-2.9Z" transform="translate(-1 -1)"/><path class="cls-5" d="M73.18,8.11h0A1.8,1.8,0,0,0,70.92,9L57.45,41,83,49.37c1.72-3.93,5-15.6-1.34-33a13.84,13.84,0,0,0-8.5-8.23Z" transform="translate(-1 -1)"/><path class="cls-5" d="M62.28,81.19,35.69,72.11a4.39,4.39,0,0,1-2.75-5.59l5-14.53a4.41,4.41,0,0,1,5.59-2.75l26.6,9.08a4.4,4.4,0,0,1,2.74,5.59l-5,14.53a4.41,4.41,0,0,1-5.59,2.75Z" transform="translate(-1 -1)"/><path class="cls-6" d="M47.21,50.51a1.21,1.21,0,0,0-.05.14l-7.72,22.7v0l6.23,2.12a.08.08,0,0,1,0,0,.14.14,0,0,1,0-.06l7.67-22.57,0-.07a.93.93,0,0,0,0-.13l-6.23-2.13Z" transform="translate(-1 -1)"/><path class="cls-6" d="M60.11,54.91l0,.09L52.36,77.7l0,.09,6.23,2.13a1,1,0,0,0,0-.1s0,0,0-.07L66.29,57.2l0-.09,0-.07-6.24-2.13Z" transform="translate(-1 -1)"/><path d="M94.35,165H127.8c18.37,0,28.24,9.74,28.24,23.58,0,11.38-6.85,18.78-14.81,21,6.86,1.92,18.24,8.63,18.24,23.71,0,19.19-14.4,27.69-31.12,27.69h-34Zm31,41.27c16.59,0,22.9-6.17,22.9-17.28,0-9.46-6.59-17.13-20-17.13H101.62V206.3Zm-23.71,47.84h27c12.61,0,23.17-6.31,23.17-20.43,0-12.2-7.81-20.56-27.14-20.56h-23Z" transform="translate(-1 -1)"/><path d="M188.94,216.17V261H181.4V165h34.41c18.92,0,28.92,10.15,28.92,25.23,0,12.2-7.26,20.15-17.95,22.48,9.87,2.33,16.45,8.77,16.45,25.09v3.7c0,6.71-.55,15.76,1.23,19.46h-7.54c-1.78-4.11-1.37-11.79-1.37-20v-2.47c0-15.76-4.66-22.34-23-22.34Zm0-6.86h23.17c16.86,0,24.67-6.3,24.67-18.92,0-11.79-7.67-18.5-22.62-18.5H188.94Z" transform="translate(-1 -1)"/><path d="M268.18,165h33.44c18.37,0,28.24,9.74,28.24,23.58,0,11.38-6.85,18.78-14.8,21,6.85,1.92,18.23,8.63,18.23,23.71,0,19.19-14.39,27.69-31.12,27.69h-34Zm31,41.27c16.58,0,22.89-6.17,22.89-17.28,0-9.46-6.58-17.13-20-17.13H275.44V206.3Zm-23.72,47.84h27c12.61,0,23.16-6.31,23.16-20.43,0-12.2-7.81-20.56-27.14-20.56h-23Z" transform="translate(-1 -1)"/></svg>