<svg xmlns="http://www.w3.org/2000/svg" width="1440" height="900"><path d="M718,426L929,679L941,372Z" fill="#64bdcd" stroke="#64bdcd" stroke-width="1.51"/><path d="M718,426L578,611L929,679Z" fill="#64bccc" stroke="#64bccc" stroke-width="1.51"/><path d="M578,611L907,922L929,679Z" fill="#4a9bc0" stroke="#4a9bc0" stroke-width="1.51"/><path d="M929,679L1284,584L941,372Z" fill="#46a4c9" stroke="#46a4c9" stroke-width="1.51"/><path d="M1274,987L1284,584L929,679Z" fill="#1c77b4" stroke="#1c77b4" stroke-width="1.51"/><path d="M907,922L1274,987L929,679Z" fill="#2470a9" stroke="#2470a9" stroke-width="1.51"/><path d="M907,922L944,1493L1274,987Z" fill="#2369a1" stroke="#2369a1" stroke-width="1.51"/><path d="M578,611L596,1113L907,922Z" fill="#5387a5" stroke="#5387a5" stroke-width="1.51"/><path d="M718,426L227,336L578,611Z" fill="#96d5bf" stroke="#96d5bf" stroke-width="1.51"/><path d="M578,611L165,967L596,1113Z" fill="#718ea1" stroke="#718ea1" stroke-width="1.51"/><path d="M630,-200L227,336L718,426Z" fill="#bfe6c1" stroke="#bfe6c1" stroke-width="1.51"/><path d="M941,372L792,-222L718,426Z" fill="#a1d5cc" stroke="#a1d5cc" stroke-width="1.51"/><path d="M1284,584L1438,206L941,372Z" fill="#65a1b7" stroke="#65a1b7" stroke-width="1.51"/><path d="M1786,662L1438,206L1284,584Z" fill="#477fa5" stroke="#477fa5" stroke-width="1.51"/><path d="M1438,206L1410,85L941,372Z" fill="#82a6ba" stroke="#82a6ba" stroke-width="1.51"/><path d="M1410,85L792,-222L941,372Z" fill="#99c3d2" stroke="#99c3d2" stroke-width="1.51"/><path d="M792,-222L630,-200L718,426Z" fill="#bce5d9" stroke="#bce5d9" stroke-width="1.51"/><path d="M227,336L69,479L578,611Z" fill="#a7daca" stroke="#a7daca" stroke-width="1.51"/><path d="M-105,547L69,479L-116,174Z" fill="#c5e8d6" stroke="#c5e8d6" stroke-width="1.51"/><path d="M69,479L165,967L578,611Z" fill="#8ebac7" stroke="#8ebac7" stroke-width="1.51"/><path d="M630,-200L9,53L227,336Z" fill="#dff3d9" stroke="#dff3d9" stroke-width="1.51"/><path d="M792,-222L524,-319L630,-200Z" fill="#c4e8d7" stroke="#c4e8d7" stroke-width="1.51"/><path d="M596,1113L944,1493L907,922Z" fill="#417da6" stroke="#417da6" stroke-width="1.51"/><path d="M42,1290L663,1424L596,1113Z" fill="#728ea1" stroke="#728ea1" stroke-width="1.51"/><path d="M1274,987L1739,839L1284,584Z" fill="#095294" stroke="#095294" stroke-width="1.51"/><path d="M1438,206L1661,-76L1410,85Z" fill="#8695b2" stroke="#8695b2" stroke-width="1.51"/><path d="M1548,1281L1739,839L1274,987Z" fill="#084081" stroke="#084081" stroke-width="1.51"/><path d="M1739,839L1786,662L1284,584Z" fill="#1b629e" stroke="#1b629e" stroke-width="1.51"/><path d="M-116,174L69,479L227,336Z" fill="#cdeccf" stroke="#cdeccf" stroke-width="1.51"/><path d="M69,479L-105,547L165,967Z" fill="#9ec4d6" stroke="#9ec4d6" stroke-width="1.51"/><path d="M524,-319L9,53L630,-200Z" fill="#dff3d9" stroke="#dff3d9" stroke-width="1.51"/><path d="M663,1424L944,1493L596,1113Z" fill="#4c82a3" stroke="#4c82a3" stroke-width="1.51"/><path d="M944,1493L1346,1378L1274,987Z" fill="#145a9a" stroke="#145a9a" stroke-width="1.51"/><path d="M1786,662L1790,186L1438,206Z" fill="#65899d" stroke="#65899d" stroke-width="1.51"/><path d="M1410,85L1318,-462L792,-222Z" fill="#9ab8d3" stroke="#9ab8d3" stroke-width="1.51"/><path d="M1790,186L1661,-76L1438,206Z" fill="#8394af" stroke="#8394af" stroke-width="1.51"/><path d="M792,-222L743,-548L524,-319Z" fill="#bfe6d8" stroke="#bfe6d8" stroke-width="1.51"/><path d="M1346,1378L1548,1281L1274,987Z" fill="#094587" stroke="#094587" stroke-width="1.51"/><path d="M9,53L-116,174L227,336Z" fill="#e3f4db" stroke="#e3f4db" stroke-width="1.51"/><path d="M1924,235L1803,26L1790,186Z" fill="#8092ab" stroke="#8092ab" stroke-width="1.51"/><path d="M1790,186L1803,26L1661,-76Z" fill="#8996b4" stroke="#8996b4" stroke-width="1.51"/><path d="M82,-393L-82,-103L9,53Z" fill="#f7fcf0" stroke="#f7fcf0" stroke-width="1.51"/><path d="M1318,-462L743,-548L792,-222Z" fill="#a8d1df" stroke="#a8d1df" stroke-width="1.51"/><path d="M1661,-76L1318,-462L1410,85Z" fill="#8d98b8" stroke="#8d98b8" stroke-width="1.51"/><path d="M1640,-522L1318,-462L1661,-76Z" fill="#8d98b8" stroke="#8d98b8" stroke-width="1.51"/><path d="M1786,662L1924,235L1790,186Z" fill="#62889e" stroke="#62889e" stroke-width="1.51"/><path d="M2058,723L1924,235L1786,662Z" fill="#3979a8" stroke="#3979a8" stroke-width="1.51"/><path d="M-226,833L42,1290L165,967Z" fill="#8d98b8" stroke="#8d98b8" stroke-width="1.51"/><path d="M165,967L42,1290L596,1113Z" fill="#7e92a9" stroke="#7e92a9" stroke-width="1.51"/><path d="M663,1424L-320,1514L944,1493Z" fill="#728ea1" stroke="#728ea1" stroke-width="1.51"/><path d="M-105,547L-226,833L165,967Z" fill="#96b0cf" stroke="#96b0cf" stroke-width="1.51"/><path d="M-638,490L-226,833L-105,547Z" fill="#a5ccdc" stroke="#a5ccdc" stroke-width="1.51"/><path d="M-116,174L-425,312L-105,547Z" fill="#cfecd3" stroke="#cfecd3" stroke-width="1.51"/><path d="M9,53L-82,-103L-116,174Z" fill="#f3fbec" stroke="#f3fbec" stroke-width="1.51"/><path d="M82,-393L9,53L524,-319Z" fill="#eaf7e4" stroke="#eaf7e4" stroke-width="1.51"/><path d="M1739,839L1966,859L1786,662Z" fill="#0a5496" stroke="#0a5496" stroke-width="1.51"/><path d="M2012,1263L1966,859L1739,839Z" fill="#084081" stroke="#084081" stroke-width="1.51"/><path d="M743,-548L82,-393L524,-319Z" fill="#d9f0d6" stroke="#d9f0d6" stroke-width="1.51"/><path d="M1966,859L2058,723L1786,662Z" fill="#125999" stroke="#125999" stroke-width="1.51"/><path d="M-474,46L-116,174L-82,-103Z" fill="#f3fbec" stroke="#f3fbec" stroke-width="1.51"/><path d="M-474,46L-425,312L-116,174Z" fill="#e6f5df" stroke="#e6f5df" stroke-width="1.51"/><path d="M2142,-326L1640,-522L1661,-76Z" fill="#8d98b8" stroke="#8d98b8" stroke-width="1.51"/><path d="M1318,-462L1640,-522L743,-548Z" fill="#97b1d0" stroke="#97b1d0" stroke-width="1.51"/><path d="M2142,-326L1661,-76L1803,26Z" fill="#8d98b8" stroke="#8d98b8" stroke-width="1.51"/><path d="M82,-393L-172,-327L-82,-103Z" fill="#f7fcf0" stroke="#f7fcf0" stroke-width="1.51"/><path d="M1548,1281L2012,1263L1739,839Z" fill="#084081" stroke="#084081" stroke-width="1.51"/><path d="M1966,859L2012,1263L2058,723Z" fill="#084081" stroke="#084081" stroke-width="1.51"/><path d="M1346,1378L2012,1263L1548,1281Z" fill="#084081" stroke="#084081" stroke-width="1.51"/><path d="M944,1493L2012,1263L1346,1378Z" fill="#084081" stroke="#084081" stroke-width="1.51"/><path d="M-172,-327L-474,46L-82,-103Z" fill="#f7fcf0" stroke="#f7fcf0" stroke-width="1.51"/><path d="M-226,833L-370,1235L42,1290Z" fill="#8d98b8" stroke="#8d98b8" stroke-width="1.51"/><path d="M-638,490L-502,921L-226,833Z" fill="#99b5d1" stroke="#99b5d1" stroke-width="1.51"/><path d="M-638,490L-105,547L-425,312Z" fill="#bce4da" stroke="#bce4da" stroke-width="1.51"/><path d="M-502,921L-370,1235L-226,833Z" fill="#8d98b8" stroke="#8d98b8" stroke-width="1.51"/><path d="M42,1290L-320,1514L663,1424Z" fill="#8595b1" stroke="#8595b1" stroke-width="1.51"/><path d="M-474,46L-638,490L-425,312Z" fill="#d9f0d6" stroke="#d9f0d6" stroke-width="1.51"/><path d="M2058,723L2142,-326L1924,235Z" fill="#7b91a5" stroke="#7b91a5" stroke-width="1.51"/><path d="M1924,235L2142,-326L1803,26Z" fill="#8d98b8" stroke="#8d98b8" stroke-width="1.51"/><path d="M-502,921L-320,1514L-370,1235Z" fill="#8d98b8" stroke="#8d98b8" stroke-width="1.51"/><path d="M-370,1235L-320,1514L42,1290Z" fill="#8d98b8" stroke="#8d98b8" stroke-width="1.51"/><path d="M-638,490L-320,1514L-502,921Z" fill="#8d98b8" stroke="#8d98b8" stroke-width="1.51"/><path d="M743,-548L-565,-274L82,-393Z" fill="#f2faeb" stroke="#f2faeb" stroke-width="1.51"/><path d="M82,-393L-565,-274L-172,-327Z" fill="#f7fcf0" stroke="#f7fcf0" stroke-width="1.51"/><path d="M-172,-327L-565,-274L-474,46Z" fill="#f7fcf0" stroke="#f7fcf0" stroke-width="1.51"/><path d="M-474,46L-565,-274L-638,490Z" fill="#eef9e8" stroke="#eef9e8" stroke-width="1.51"/></svg>