<svg xmlns="http://www.w3.org/2000/svg" width="1440" height="900"><path d="M768,456L686,434L762,539Z" fill="#65a9d3" stroke="#65a9d3" stroke-width="1.51"/><path d="M686,434L661,556L762,539Z" fill="#64a8d3" stroke="#64a8d3" stroke-width="1.51"/><path d="M686,434L560,464L661,556Z" fill="#72b0d6" stroke="#72b0d6" stroke-width="1.51"/><path d="M761,338L655,352L686,434Z" fill="#80b9da" stroke="#80b9da" stroke-width="1.51"/><path d="M588,350L560,464L686,434Z" fill="#83badb" stroke="#83badb" stroke-width="1.51"/><path d="M768,456L761,338L686,434Z" fill="#73b1d7" stroke="#73b1d7" stroke-width="1.51"/><path d="M867,555L863,444L768,456Z" fill="#59a0cf" stroke="#59a0cf" stroke-width="1.51"/><path d="M560,464L561,547L661,556Z" fill="#73afd5" stroke="#73afd5" stroke-width="1.51"/><path d="M861,365L761,338L768,456Z" fill="#73b0d6" stroke="#73b0d6" stroke-width="1.51"/><path d="M762,539L867,555L768,456Z" fill="#579fce" stroke="#579fce" stroke-width="1.51"/><path d="M783,645L867,555L762,539Z" fill="#4c97c9" stroke="#4c97c9" stroke-width="1.51"/><path d="M661,556L667,652L762,539Z" fill="#5a9fcd" stroke="#5a9fcd" stroke-width="1.51"/><path d="M576,635L667,652L661,556Z" fill="#619ecd" stroke="#619ecd" stroke-width="1.51"/><path d="M667,652L783,645L762,539Z" fill="#5097ca" stroke="#5097ca" stroke-width="1.51"/><path d="M655,352L588,350L686,434Z" fill="#87bddc" stroke="#87bddc" stroke-width="1.51"/><path d="M656,262L588,350L655,352Z" fill="#95c3df" stroke="#95c3df" stroke-width="1.51"/><path d="M863,444L861,365L768,456Z" fill="#67a9d3" stroke="#67a9d3" stroke-width="1.51"/><path d="M954,353L861,365L863,444Z" fill="#69a8d2" stroke="#69a8d2" stroke-width="1.51"/><path d="M561,547L576,635L661,556Z" fill="#6aa7d0" stroke="#6aa7d0" stroke-width="1.51"/><path d="M783,645L853,638L867,555Z" fill="#448fc5" stroke="#448fc5" stroke-width="1.51"/><path d="M560,464L482,542L561,547Z" fill="#7cb4d7" stroke="#7cb4d7" stroke-width="1.51"/><path d="M561,547L469,643L576,635Z" fill="#70a6d0" stroke="#70a6d0" stroke-width="1.51"/><path d="M468,436L482,542L560,464Z" fill="#85b9db" stroke="#85b9db" stroke-width="1.51"/><path d="M667,652L773,739L783,645Z" fill="#498dc4" stroke="#498dc4" stroke-width="1.51"/><path d="M783,645L872,737L853,638Z" fill="#3d86c1" stroke="#3d86c1" stroke-width="1.51"/><path d="M587,748L666,727L667,652Z" fill="#588fc4" stroke="#588fc4" stroke-width="1.51"/><path d="M587,748L667,652L576,635Z" fill="#5e96c9" stroke="#5e96c9" stroke-width="1.51"/><path d="M761,338L656,262L655,352Z" fill="#8dc0de" stroke="#8dc0de" stroke-width="1.51"/><path d="M772,246L656,262L761,338Z" fill="#8fbfdf" stroke="#8fbfdf" stroke-width="1.51"/><path d="M867,555L962,454L863,444Z" fill="#529bcb" stroke="#529bcb" stroke-width="1.51"/><path d="M976,557L962,454L867,555Z" fill="#4893c8" stroke="#4893c8" stroke-width="1.51"/><path d="M666,727L773,739L667,652Z" fill="#4d8cc2" stroke="#4d8cc2" stroke-width="1.51"/><path d="M482,368L468,436L560,464Z" fill="#90c1df" stroke="#90c1df" stroke-width="1.51"/><path d="M482,368L560,464L588,350Z" fill="#91c2df" stroke="#91c2df" stroke-width="1.51"/><path d="M865,240L772,246L761,338Z" fill="#8abadc" stroke="#8abadc" stroke-width="1.51"/><path d="M865,240L761,338L861,365Z" fill="#7fb5d8" stroke="#7fb5d8" stroke-width="1.51"/><path d="M572,262L482,368L588,350Z" fill="#9fcae2" stroke="#9fcae2" stroke-width="1.51"/><path d="M970,645L976,557L867,555Z" fill="#3c8bc2" stroke="#3c8bc2" stroke-width="1.51"/><path d="M970,645L867,555L853,638Z" fill="#3c8bc2" stroke="#3c8bc2" stroke-width="1.51"/><path d="M656,262L572,262L588,350Z" fill="#9ec8e2" stroke="#9ec8e2" stroke-width="1.51"/><path d="M572,159L572,262L656,262Z" fill="#aacee6" stroke="#aacee6" stroke-width="1.51"/><path d="M962,454L954,353L863,444Z" fill="#5fa1cf" stroke="#5fa1cf" stroke-width="1.51"/><path d="M1048,347L954,353L962,454Z" fill="#649fcd" stroke="#649fcd" stroke-width="1.51"/><path d="M479,753L587,748L576,635Z" fill="#6696c7" stroke="#6696c7" stroke-width="1.51"/><path d="M666,727L685,833L773,739Z" fill="#4982bc" stroke="#4982bc" stroke-width="1.51"/><path d="M482,542L469,643L561,547Z" fill="#77add4" stroke="#77add4" stroke-width="1.51"/><path d="M386,553L469,643L482,542Z" fill="#7eafd6" stroke="#7eafd6" stroke-width="1.51"/><path d="M773,739L872,737L783,645Z" fill="#3f83be" stroke="#3f83be" stroke-width="1.51"/><path d="M868,834L872,737L773,739Z" fill="#3678b6" stroke="#3678b6" stroke-width="1.51"/><path d="M954,353L865,240L861,365Z" fill="#79afd5" stroke="#79afd5" stroke-width="1.51"/><path d="M872,737L970,645L853,638Z" fill="#3481be" stroke="#3481be" stroke-width="1.51"/><path d="M772,246L666,161L656,262Z" fill="#9ec6e3" stroke="#9ec6e3" stroke-width="1.51"/><path d="M865,240L761,167L772,246Z" fill="#95bfe0" stroke="#95bfe0" stroke-width="1.51"/><path d="M976,557L1044,464L962,454Z" fill="#4a92c7" stroke="#4a92c7" stroke-width="1.51"/><path d="M954,353L974,264L865,240Z" fill="#7daed5" stroke="#7daed5" stroke-width="1.51"/><path d="M1070,544L1044,464L976,557Z" fill="#418bc3" stroke="#418bc3" stroke-width="1.51"/><path d="M375,450L386,553L482,542Z" fill="#8bbadc" stroke="#8bbadc" stroke-width="1.51"/><path d="M375,450L482,542L468,436Z" fill="#8dbdde" stroke="#8dbdde" stroke-width="1.51"/><path d="M761,167L666,161L772,246Z" fill="#9dc6e3" stroke="#9dc6e3" stroke-width="1.51"/><path d="M572,262L490,241L482,368Z" fill="#aacee5" stroke="#aacee5" stroke-width="1.51"/><path d="M390,338L375,450L468,436Z" fill="#9ec7e3" stroke="#9ec7e3" stroke-width="1.51"/><path d="M572,159L490,241L572,262Z" fill="#b2d2e8" stroke="#b2d2e8" stroke-width="1.51"/><path d="M587,748L685,833L666,727Z" fill="#5386bd" stroke="#5386bd" stroke-width="1.51"/><path d="M390,338L468,436L482,368Z" fill="#9fc9e3" stroke="#9fc9e3" stroke-width="1.51"/><path d="M685,833L767,834L773,739Z" fill="#427ab5" stroke="#427ab5" stroke-width="1.51"/><path d="M1047,631L1070,544L976,557Z" fill="#3684bf" stroke="#3684bf" stroke-width="1.51"/><path d="M872,737L959,738L970,645Z" fill="#2f7ab8" stroke="#2f7ab8" stroke-width="1.51"/><path d="M868,834L959,738L872,737Z" fill="#2d73b3" stroke="#2d73b3" stroke-width="1.51"/><path d="M1048,347L974,264L954,353Z" fill="#72a6d0" stroke="#72a6d0" stroke-width="1.51"/><path d="M865,240L875,149L761,167Z" fill="#95bedf" stroke="#95bedf" stroke-width="1.51"/><path d="M587,748L571,834L685,833Z" fill="#5683b8" stroke="#5683b8" stroke-width="1.51"/><path d="M469,643L479,753L576,635Z" fill="#6d9dcc" stroke="#6d9dcc" stroke-width="1.51"/><path d="M393,650L479,753L469,643Z" fill="#759fce" stroke="#759fce" stroke-width="1.51"/><path d="M386,553L393,650L469,643Z" fill="#7fabd5" stroke="#7fabd5" stroke-width="1.51"/><path d="M375,750L393,650L292,752Z" fill="#7d9ece" stroke="#7d9ece" stroke-width="1.51"/><path d="M490,241L390,338L482,368Z" fill="#accfe6" stroke="#accfe6" stroke-width="1.51"/><path d="M1047,631L976,557L970,645Z" fill="#3482be" stroke="#3482be" stroke-width="1.51"/><path d="M1064,755L1047,631L970,645Z" fill="#2775b8" stroke="#2775b8" stroke-width="1.51"/><path d="M490,241L369,260L390,338Z" fill="#b7d5e9" stroke="#b7d5e9" stroke-width="1.51"/><path d="M666,161L572,159L656,262Z" fill="#aacde6" stroke="#aacde6" stroke-width="1.51"/><path d="M1145,343L1048,347L1044,464Z" fill="#5e96c9" stroke="#5e96c9" stroke-width="1.51"/><path d="M1044,464L1048,347L962,454Z" fill="#5898ca" stroke="#5898ca" stroke-width="1.51"/><path d="M479,753L571,834L587,748Z" fill="#628cbf" stroke="#628cbf" stroke-width="1.51"/><path d="M863,943L868,834L767,834Z" fill="#3368a1" stroke="#3368a1" stroke-width="1.51"/><path d="M767,834L868,834L773,739Z" fill="#3976b2" stroke="#3976b2" stroke-width="1.51"/><path d="M974,151L865,240L974,264Z" fill="#89b3d9" stroke="#89b3d9" stroke-width="1.51"/><path d="M974,151L875,149L865,240Z" fill="#8fb8dc" stroke="#8fb8dc" stroke-width="1.51"/><path d="M761,167L777,75L666,161Z" fill="#a4cae5" stroke="#a4cae5" stroke-width="1.51"/><path d="M666,161L665,50L572,159Z" fill="#b1d2e8" stroke="#b1d2e8" stroke-width="1.51"/><path d="M572,159L476,158L490,241Z" fill="#b9d7ea" stroke="#b9d7ea" stroke-width="1.51"/><path d="M468,62L476,158L572,159Z" fill="#c1dbed" stroke="#c1dbed" stroke-width="1.51"/><path d="M296,359L283,457L375,450Z" fill="#a4cae5" stroke="#a4cae5" stroke-width="1.51"/><path d="M377,173L369,260L490,241Z" fill="#c1d8ed" stroke="#c1d8ed" stroke-width="1.51"/><path d="M868,834L953,842L959,738Z" fill="#296cab" stroke="#296cab" stroke-width="1.51"/><path d="M959,738L1064,755L970,645Z" fill="#2873b5" stroke="#2873b5" stroke-width="1.51"/><path d="M863,943L953,842L868,834Z" fill="#2a649d" stroke="#2a649d" stroke-width="1.51"/><path d="M756,943L767,834L685,833Z" fill="#3f6fa6" stroke="#3f6fa6" stroke-width="1.51"/><path d="M1048,347L1060,251L974,264Z" fill="#77a5d1" stroke="#77a5d1" stroke-width="1.51"/><path d="M1145,343L1060,251L1048,347Z" fill="#6e9dcc" stroke="#6e9dcc" stroke-width="1.51"/><path d="M875,149L777,75L761,167Z" fill="#9ec4e3" stroke="#9ec4e3" stroke-width="1.51"/><path d="M859,63L777,75L875,149Z" fill="#9fc4e2" stroke="#9fc4e2" stroke-width="1.51"/><path d="M393,650L375,750L479,753Z" fill="#769bcb" stroke="#769bcb" stroke-width="1.51"/><path d="M479,753L461,836L571,834Z" fill="#6589bb" stroke="#6589bb" stroke-width="1.51"/><path d="M278,632L393,650L386,553Z" fill="#86aed7" stroke="#86aed7" stroke-width="1.51"/><path d="M283,457L386,553L375,450Z" fill="#97c0e1" stroke="#97c0e1" stroke-width="1.51"/><path d="M571,834L662,931L685,833Z" fill="#4e77a9" stroke="#4e77a9" stroke-width="1.51"/><path d="M375,750L461,836L479,753Z" fill="#6f90c3" stroke="#6f90c3" stroke-width="1.51"/><path d="M1060,251L974,151L974,264Z" fill="#85acd6" stroke="#85acd6" stroke-width="1.51"/><path d="M296,359L375,450L390,338Z" fill="#aacde6" stroke="#aacde6" stroke-width="1.51"/><path d="M953,842L1064,755L959,738Z" fill="#236aad" stroke="#236aad" stroke-width="1.51"/><path d="M1047,631L1153,558L1070,544Z" fill="#317ebc" stroke="#317ebc" stroke-width="1.51"/><path d="M369,260L296,359L390,338Z" fill="#b6d4e9" stroke="#b6d4e9" stroke-width="1.51"/><path d="M581,942L662,931L571,834Z" fill="#5174a3" stroke="#5174a3" stroke-width="1.51"/><path d="M283,457L276,549L386,553Z" fill="#94bddf" stroke="#94bddf" stroke-width="1.51"/><path d="M1070,544L1172,466L1044,464Z" fill="#4388c2" stroke="#4388c2" stroke-width="1.51"/><path d="M1168,632L1153,558L1047,631Z" fill="#2b77b7" stroke="#2b77b7" stroke-width="1.51"/><path d="M777,75L665,50L666,161Z" fill="#accfe8" stroke="#accfe8" stroke-width="1.51"/><path d="M662,931L756,943L685,833Z" fill="#426da0" stroke="#426da0" stroke-width="1.51"/><path d="M973,69L859,63L875,149Z" fill="#99bfdf" stroke="#99bfdf" stroke-width="1.51"/><path d="M777,75L679,-35L665,50Z" fill="#b3d3ea" stroke="#b3d3ea" stroke-width="1.51"/><path d="M1060,251L1051,143L974,151Z" fill="#87acd6" stroke="#87acd6" stroke-width="1.51"/><path d="M1172,466L1145,343L1044,464Z" fill="#528ec4" stroke="#528ec4" stroke-width="1.51"/><path d="M276,549L278,632L386,553Z" fill="#8cb5db" stroke="#8cb5db" stroke-width="1.51"/><path d="M1153,558L1172,466L1070,544Z" fill="#3b82bd" stroke="#3b82bd" stroke-width="1.51"/><path d="M369,260L291,240L296,359Z" fill="#bed8ec" stroke="#bed8ec" stroke-width="1.51"/><path d="M476,158L377,173L490,241Z" fill="#c0d9ec" stroke="#c0d9ec" stroke-width="1.51"/><path d="M468,62L377,173L476,158Z" fill="#c7ddef" stroke="#c7ddef" stroke-width="1.51"/><path d="M662,931L664,1019L756,943Z" fill="#436ea0" stroke="#436ea0" stroke-width="1.51"/><path d="M469,936L581,942L571,834Z" fill="#5a78a5" stroke="#5a78a5" stroke-width="1.51"/><path d="M665,50L572,45L572,159Z" fill="#bad7eb" stroke="#bad7eb" stroke-width="1.51"/><path d="M756,943L863,943L767,834Z" fill="#36669c" stroke="#36669c" stroke-width="1.51"/><path d="M953,842L1064,851L1064,755Z" fill="#1e61a4" stroke="#1e61a4" stroke-width="1.51"/><path d="M1265,553L1266,445L1172,466Z" fill="#3e7bb8" stroke="#3e7bb8" stroke-width="1.51"/><path d="M1158,738L1168,632L1047,631Z" fill="#206eb2" stroke="#206eb2" stroke-width="1.51"/><path d="M461,836L469,936L571,834Z" fill="#617fad" stroke="#617fad" stroke-width="1.51"/><path d="M375,750L383,842L461,836Z" fill="#718dbe" stroke="#718dbe" stroke-width="1.51"/><path d="M292,752L383,842L375,750Z" fill="#7994c6" stroke="#7994c6" stroke-width="1.51"/><path d="M974,151L973,69L875,149Z" fill="#94b8dc" stroke="#94b8dc" stroke-width="1.51"/><path d="M1151,173L1051,143L1060,251Z" fill="#83a6d3" stroke="#83a6d3" stroke-width="1.51"/><path d="M377,173L291,240L369,260Z" fill="#c7dbef" stroke="#c7dbef" stroke-width="1.51"/><path d="M296,359L187,442L283,457Z" fill="#a9cde6" stroke="#a9cde6" stroke-width="1.51"/><path d="M283,457L182,540L276,549Z" fill="#99c1e1" stroke="#99c1e1" stroke-width="1.51"/><path d="M278,632L292,752L393,650Z" fill="#82a5d3" stroke="#82a5d3" stroke-width="1.51"/><path d="M572,45L468,62L572,159Z" fill="#c1dced" stroke="#c1dced" stroke-width="1.51"/><path d="M377,173L291,158L291,240Z" fill="#ccdff1" stroke="#ccdff1" stroke-width="1.51"/><path d="M1051,143L973,69L974,151Z" fill="#90b3da" stroke="#90b3da" stroke-width="1.51"/><path d="M762,-53L679,-35L777,75Z" fill="#b3d2ea" stroke="#b3d2ea" stroke-width="1.51"/><path d="M975,929L1064,851L953,842Z" fill="#205a99" stroke="#205a99" stroke-width="1.51"/><path d="M1064,755L1158,738L1047,631Z" fill="#1e6bb1" stroke="#1e6bb1" stroke-width="1.51"/><path d="M383,842L469,936L461,836Z" fill="#6881af" stroke="#6881af" stroke-width="1.51"/><path d="M364,921L469,936L383,842Z" fill="#697ea9" stroke="#697ea9" stroke-width="1.51"/><path d="M1147,844L1158,738L1064,755Z" fill="#155ea6" stroke="#155ea6" stroke-width="1.51"/><path d="M863,943L975,929L953,842Z" fill="#265c96" stroke="#265c96" stroke-width="1.51"/><path d="M1145,343L1162,247L1060,251Z" fill="#739ccc" stroke="#739ccc" stroke-width="1.51"/><path d="M1051,143L1074,74L973,69Z" fill="#91b1d9" stroke="#91b1d9" stroke-width="1.51"/><path d="M1252,253L1162,247L1145,343Z" fill="#7096c7" stroke="#7096c7" stroke-width="1.51"/><path d="M581,942L664,1019L662,931Z" fill="#4c72a2" stroke="#4c72a2" stroke-width="1.51"/><path d="M756,943L856,1022L863,943Z" fill="#33649b" stroke="#33649b" stroke-width="1.51"/><path d="M863,943L963,1035L975,929Z" fill="#265c96" stroke="#265c96" stroke-width="1.51"/><path d="M577,1033L664,1019L581,942Z" fill="#5173a3" stroke="#5173a3" stroke-width="1.51"/><path d="M178,348L187,442L296,359Z" fill="#b3d3e9" stroke="#b3d3e9" stroke-width="1.51"/><path d="M276,549L197,634L278,632Z" fill="#8eb4da" stroke="#8eb4da" stroke-width="1.51"/><path d="M278,632L197,634L292,752Z" fill="#87a9d5" stroke="#87a9d5" stroke-width="1.51"/><path d="M572,45L479,-38L468,62Z" fill="#cde2f0" stroke="#cde2f0" stroke-width="1.51"/><path d="M665,50L577,-28L572,45Z" fill="#c1dced" stroke="#c1dced" stroke-width="1.51"/><path d="M762,-53L777,75L862,-47Z" fill="#adcde7" stroke="#adcde7" stroke-width="1.51"/><path d="M187,442L182,540L283,457Z" fill="#a1c7e4" stroke="#a1c7e4" stroke-width="1.51"/><path d="M182,540L197,634L276,549Z" fill="#93badd" stroke="#93badd" stroke-width="1.51"/><path d="M679,-35L577,-28L665,50Z" fill="#bfdaed" stroke="#bfdaed" stroke-width="1.51"/><path d="M194,269L178,348L296,359Z" fill="#bdd9ec" stroke="#bdd9ec" stroke-width="1.51"/><path d="M386,47L291,158L377,173Z" fill="#d1e2f3" stroke="#d1e2f3" stroke-width="1.51"/><path d="M386,47L377,173L468,62Z" fill="#cfe2f2" stroke="#cfe2f2" stroke-width="1.51"/><path d="M1162,247L1151,173L1060,251Z" fill="#7ea0cf" stroke="#7ea0cf" stroke-width="1.51"/><path d="M1172,466L1242,366L1145,343Z" fill="#588bc1" stroke="#588bc1" stroke-width="1.51"/><path d="M1162,247L1252,253L1151,173Z" fill="#7b9aca" stroke="#7b9aca" stroke-width="1.51"/><path d="M1266,445L1242,366L1172,466Z" fill="#4d84bc" stroke="#4d84bc" stroke-width="1.51"/><path d="M1172,466L1153,558L1265,553Z" fill="#387bb8" stroke="#387bb8" stroke-width="1.51"/><path d="M664,1019L755,1038L756,943Z" fill="#3e6b9f" stroke="#3e6b9f" stroke-width="1.51"/><path d="M755,1038L856,1022L756,943Z" fill="#37679c" stroke="#37679c" stroke-width="1.51"/><path d="M862,-47L777,75L859,63Z" fill="#a7c8e5" stroke="#a7c8e5" stroke-width="1.51"/><path d="M574,-149L479,-38L577,-28Z" fill="#cbe2f0" stroke="#cbe2f0" stroke-width="1.51"/><path d="M469,1023L577,1033L581,942Z" fill="#5a78a5" stroke="#5a78a5" stroke-width="1.51"/><path d="M271,853L364,921L383,842Z" fill="#7285b2" stroke="#7285b2" stroke-width="1.51"/><path d="M271,853L383,842L292,752Z" fill="#7990c0" stroke="#7990c0" stroke-width="1.51"/><path d="M969,-21L862,-47L859,63Z" fill="#a5c6e3" stroke="#a5c6e3" stroke-width="1.51"/><path d="M1151,173L1074,74L1051,143Z" fill="#8aa9d5" stroke="#8aa9d5" stroke-width="1.51"/><path d="M479,-38L386,47L468,62Z" fill="#d3e5f2" stroke="#d3e5f2" stroke-width="1.51"/><path d="M1265,553L1153,558L1168,632Z" fill="#2c74b4" stroke="#2c74b4" stroke-width="1.51"/><path d="M1246,660L1265,553L1168,632Z" fill="#256caf" stroke="#256caf" stroke-width="1.51"/><path d="M75,453L82,550L182,540Z" fill="#a3c7e4" stroke="#a3c7e4" stroke-width="1.51"/><path d="M194,269L296,359L291,240Z" fill="#c1daed" stroke="#c1daed" stroke-width="1.51"/><path d="M664,1019L577,1033L755,1038Z" fill="#486fa1" stroke="#486fa1" stroke-width="1.51"/><path d="M469,1023L581,942L469,936Z" fill="#5e7aa6" stroke="#5e7aa6" stroke-width="1.51"/><path d="M1158,738L1246,660L1168,632Z" fill="#1b67ad" stroke="#1b67ad" stroke-width="1.51"/><path d="M1064,851L1147,844L1064,755Z" fill="#165ba1" stroke="#165ba1" stroke-width="1.51"/><path d="M1153,935L1147,844L1064,851Z" fill="#145091" stroke="#145091" stroke-width="1.51"/><path d="M1049,943L1064,851L975,929Z" fill="#1c5492" stroke="#1c5492" stroke-width="1.51"/><path d="M1251,741L1246,660L1158,738Z" fill="#155fa7" stroke="#155fa7" stroke-width="1.51"/><path d="M963,1035L1049,943L975,929Z" fill="#1f5793" stroke="#1f5793" stroke-width="1.51"/><path d="M969,-21L859,63L973,69Z" fill="#9ebfe0" stroke="#9ebfe0" stroke-width="1.51"/><path d="M197,151L194,269L291,240Z" fill="#d0e1f2" stroke="#d0e1f2" stroke-width="1.51"/><path d="M197,151L291,240L291,158Z" fill="#d1e2f3" stroke="#d1e2f3" stroke-width="1.51"/><path d="M183,828L271,853L292,752Z" fill="#7e93c2" stroke="#7e93c2" stroke-width="1.51"/><path d="M1060,-33L969,-21L973,69Z" fill="#9ebade" stroke="#9ebade" stroke-width="1.51"/><path d="M670,-137L577,-28L679,-35Z" fill="#bedaed" stroke="#bedaed" stroke-width="1.51"/><path d="M577,-28L479,-38L572,45Z" fill="#cbe2f0" stroke="#cbe2f0" stroke-width="1.51"/><path d="M386,1018L469,1023L469,936Z" fill="#657ca8" stroke="#657ca8" stroke-width="1.51"/><path d="M386,1018L469,936L364,921Z" fill="#697ea9" stroke="#697ea9" stroke-width="1.51"/><path d="M1151,173L1164,59L1074,74Z" fill="#8ba7d3" stroke="#8ba7d3" stroke-width="1.51"/><path d="M1242,366L1252,253L1145,343Z" fill="#6791c3" stroke="#6791c3" stroke-width="1.51"/><path d="M1336,260L1252,253L1242,366Z" fill="#6a8cbf" stroke="#6a8cbf" stroke-width="1.51"/><path d="M1147,844L1251,741L1158,738Z" fill="#1159a2" stroke="#1159a2" stroke-width="1.51"/><path d="M1246,660L1339,637L1265,553Z" fill="#2367a9" stroke="#2367a9" stroke-width="1.51"/><path d="M1269,852L1251,741L1147,844Z" fill="#0c5099" stroke="#0c5099" stroke-width="1.51"/><path d="M1049,943L1153,935L1064,851Z" fill="#154f8f" stroke="#154f8f" stroke-width="1.51"/><path d="M856,1022L963,1035L863,943Z" fill="#2a5f98" stroke="#2a5f98" stroke-width="1.51"/><path d="M755,1038L963,1035L856,1022Z" fill="#2f6299" stroke="#2f6299" stroke-width="1.51"/><path d="M82,550L197,634L182,540Z" fill="#98bcde" stroke="#98bcde" stroke-width="1.51"/><path d="M81,660L170,750L197,634Z" fill="#8eacd6" stroke="#8eacd6" stroke-width="1.51"/><path d="M197,634L170,750L292,752Z" fill="#87a4d1" stroke="#87a4d1" stroke-width="1.51"/><path d="M391,-40L294,53L386,47Z" fill="#dde9f7" stroke="#dde9f7" stroke-width="1.51"/><path d="M386,47L294,53L291,158Z" fill="#d8e6f5" stroke="#d8e6f5" stroke-width="1.51"/><path d="M469,1023L291,1038L577,1033Z" fill="#657ca8" stroke="#657ca8" stroke-width="1.51"/><path d="M268,948L386,1018L364,921Z" fill="#7081ac" stroke="#7081ac" stroke-width="1.51"/><path d="M268,948L364,921L271,853Z" fill="#7282ad" stroke="#7282ad" stroke-width="1.51"/><path d="M88,358L187,442L178,348Z" fill="#b8d6ea" stroke="#b8d6ea" stroke-width="1.51"/><path d="M294,53L197,151L291,158Z" fill="#d8e7f5" stroke="#d8e7f5" stroke-width="1.51"/><path d="M762,-53L754,-126L679,-35Z" fill="#b4d3ea" stroke="#b4d3ea" stroke-width="1.51"/><path d="M862,-125L754,-126L762,-53Z" fill="#aecee8" stroke="#aecee8" stroke-width="1.51"/><path d="M862,-125L762,-53L862,-47Z" fill="#abcbe6" stroke="#abcbe6" stroke-width="1.51"/><path d="M1150,1020L1153,935L1049,943Z" fill="#134c8d" stroke="#134c8d" stroke-width="1.51"/><path d="M461,-130L391,-40L479,-38Z" fill="#d6e7f3" stroke="#d6e7f3" stroke-width="1.51"/><path d="M479,-38L391,-40L386,47Z" fill="#d8e8f4" stroke="#d8e8f4" stroke-width="1.51"/><path d="M1264,157L1164,59L1151,173Z" fill="#85a0cd" stroke="#85a0cd" stroke-width="1.51"/><path d="M1074,74L1060,-33L973,69Z" fill="#98b5db" stroke="#98b5db" stroke-width="1.51"/><path d="M954,-119L862,-125L862,-47Z" fill="#a5c6e3" stroke="#a5c6e3" stroke-width="1.51"/><path d="M170,750L183,828L292,752Z" fill="#839ac9" stroke="#839ac9" stroke-width="1.51"/><path d="M1164,59L1060,-33L1074,74Z" fill="#95afd8" stroke="#95afd8" stroke-width="1.51"/><path d="M754,-126L670,-137L679,-35Z" fill="#b7d5eb" stroke="#b7d5eb" stroke-width="1.51"/><path d="M75,453L182,540L187,442Z" fill="#a6cae5" stroke="#a6cae5" stroke-width="1.51"/><path d="M170,750L103,749L183,828Z" fill="#889ccb" stroke="#889ccb" stroke-width="1.51"/><path d="M75,453L187,442L88,358Z" fill="#b3d3ea" stroke="#b3d3ea" stroke-width="1.51"/><path d="M963,1035L1052,1031L1049,943Z" fill="#1d5592" stroke="#1d5592" stroke-width="1.51"/><path d="M754,-126L862,-125L670,-137Z" fill="#b1d0e9" stroke="#b1d0e9" stroke-width="1.51"/><path d="M954,-119L862,-47L969,-21Z" fill="#a3c2e1" stroke="#a3c2e1" stroke-width="1.51"/><path d="M182,940L268,948L271,853Z" fill="#7685ae" stroke="#7685ae" stroke-width="1.51"/><path d="M88,358L178,348L99,268Z" fill="#c5deee" stroke="#c5deee" stroke-width="1.51"/><path d="M99,268L178,348L194,269Z" fill="#c7deef" stroke="#c7deef" stroke-width="1.51"/><path d="M1336,753L1339,637L1246,660Z" fill="#165ba1" stroke="#165ba1" stroke-width="1.51"/><path d="M1265,553L1356,461L1266,445Z" fill="#3d76b1" stroke="#3d76b1" stroke-width="1.51"/><path d="M1266,445L1362,362L1242,366Z" fill="#5482b8" stroke="#5482b8" stroke-width="1.51"/><path d="M1336,753L1246,660L1251,741Z" fill="#1259a1" stroke="#1259a1" stroke-width="1.51"/><path d="M1364,550L1356,461L1265,553Z" fill="#346eaa" stroke="#346eaa" stroke-width="1.51"/><path d="M1252,253L1264,157L1151,173Z" fill="#7d98c9" stroke="#7d98c9" stroke-width="1.51"/><path d="M1336,260L1264,157L1252,253Z" fill="#7690c2" stroke="#7690c2" stroke-width="1.51"/><path d="M1339,637L1364,550L1265,553Z" fill="#2968a7" stroke="#2968a7" stroke-width="1.51"/><path d="M82,550L81,660L197,634Z" fill="#97b8dc" stroke="#97b8dc" stroke-width="1.51"/><path d="M6,560L81,660L82,550Z" fill="#9ebedf" stroke="#9ebedf" stroke-width="1.51"/><path d="M197,151L99,268L194,269Z" fill="#d2e3f3" stroke="#d2e3f3" stroke-width="1.51"/><path d="M-1,447L6,560L75,453Z" fill="#adcee8" stroke="#adcee8" stroke-width="1.51"/><path d="M670,-137L574,-149L577,-28Z" fill="#c3ddee" stroke="#c3ddee" stroke-width="1.51"/><path d="M1066,-136L574,-149L670,-137Z" fill="#b0d0e9" stroke="#b0d0e9" stroke-width="1.51"/><path d="M1060,-33L954,-119L969,-21Z" fill="#9fbcde" stroke="#9fbcde" stroke-width="1.51"/><path d="M862,-125L1066,-136L670,-137Z" fill="#a8c8e4" stroke="#a8c8e4" stroke-width="1.51"/><path d="M1153,935L1269,852L1147,844Z" fill="#0e4a8d" stroke="#0e4a8d" stroke-width="1.51"/><path d="M1266,951L1269,852L1153,935Z" fill="#0b4385" stroke="#0b4385" stroke-width="1.51"/><path d="M1356,461L1362,362L1266,445Z" fill="#4a7ab1" stroke="#4a7ab1" stroke-width="1.51"/><path d="M1443,437L1362,362L1356,461Z" fill="#4974a8" stroke="#4974a8" stroke-width="1.51"/><path d="M183,1047L291,1038L268,948Z" fill="#7684ae" stroke="#7684ae" stroke-width="1.51"/><path d="M81,660L103,749L170,750Z" fill="#8ea7d3" stroke="#8ea7d3" stroke-width="1.51"/><path d="M1362,362L1336,260L1242,366Z" fill="#6286b7" stroke="#6286b7" stroke-width="1.51"/><path d="M391,-40L271,-34L294,53Z" fill="#e2edf8" stroke="#e2edf8" stroke-width="1.51"/><path d="M294,53L172,56L197,151Z" fill="#dfebf7" stroke="#dfebf7" stroke-width="1.51"/><path d="M574,-149L461,-130L479,-38Z" fill="#cfe4f1" stroke="#cfe4f1" stroke-width="1.51"/><path d="M1269,852L1336,753L1251,741Z" fill="#094f99" stroke="#094f99" stroke-width="1.51"/><path d="M1447,634L1434,548L1364,550Z" fill="#275f9a" stroke="#275f9a" stroke-width="1.51"/><path d="M1052,1031L1150,1020L1049,943Z" fill="#164f8f" stroke="#164f8f" stroke-width="1.51"/><path d="M277,-134L271,-34L391,-40Z" fill="#e2edf8" stroke="#e2edf8" stroke-width="1.51"/><path d="M197,151L77,151L99,268Z" fill="#dae8f5" stroke="#dae8f5" stroke-width="1.51"/><path d="M268,948L291,1038L386,1018Z" fill="#7182ac" stroke="#7182ac" stroke-width="1.51"/><path d="M386,1018L291,1038L469,1023Z" fill="#6c7faa" stroke="#6c7faa" stroke-width="1.51"/><path d="M577,1033L183,1047L755,1038Z" fill="#5e7aa6" stroke="#5e7aa6" stroke-width="1.51"/><path d="M182,940L271,853L183,828Z" fill="#7b8ab5" stroke="#7b8ab5" stroke-width="1.51"/><path d="M91,932L182,940L183,828Z" fill="#7c88b0" stroke="#7c88b0" stroke-width="1.51"/><path d="M271,-34L172,56L294,53Z" fill="#e3eef9" stroke="#e3eef9" stroke-width="1.51"/><path d="M574,-149L386,-130L461,-130Z" fill="#d2e5f2" stroke="#d2e5f2" stroke-width="1.51"/><path d="M461,-130L386,-130L391,-40Z" fill="#d9e8f5" stroke="#d9e8f5" stroke-width="1.51"/><path d="M1348,58L1263,50L1264,157Z" fill="#8598c6" stroke="#8598c6" stroke-width="1.51"/><path d="M1264,157L1263,50L1164,59Z" fill="#889ecc" stroke="#889ecc" stroke-width="1.51"/><path d="M1164,59L1172,-46L1060,-33Z" fill="#97aed7" stroke="#97aed7" stroke-width="1.51"/><path d="M1060,-33L1066,-136L954,-119Z" fill="#9db9dd" stroke="#9db9dd" stroke-width="1.51"/><path d="M1263,50L1172,-46L1164,59Z" fill="#92a6d1" stroke="#92a6d1" stroke-width="1.51"/><path d="M-11,733L71,831L103,749Z" fill="#8fa2ce" stroke="#8fa2ce" stroke-width="1.51"/><path d="M103,749L71,831L183,828Z" fill="#8799c7" stroke="#8799c7" stroke-width="1.51"/><path d="M75,453L6,560L82,550Z" fill="#a6c8e5" stroke="#a6c8e5" stroke-width="1.51"/><path d="M-1,447L75,453L88,358Z" fill="#b7d6eb" stroke="#b7d6eb" stroke-width="1.51"/><path d="M5,345L-1,447L88,358Z" fill="#c0dbed" stroke="#c0dbed" stroke-width="1.51"/><path d="M5,345L88,358L99,268Z" fill="#c9e0ef" stroke="#c9e0ef" stroke-width="1.51"/><path d="M1269,852L1359,846L1336,753Z" fill="#09468d" stroke="#09468d" stroke-width="1.51"/><path d="M1150,1020L1266,951L1153,935Z" fill="#0e4688" stroke="#0e4688" stroke-width="1.51"/><path d="M1156,-126L1066,-136L1060,-33Z" fill="#99b1d9" stroke="#99b1d9" stroke-width="1.51"/><path d="M954,-119L1066,-136L862,-125Z" fill="#a1bfe0" stroke="#a1bfe0" stroke-width="1.51"/><path d="M1364,550L1434,548L1356,461Z" fill="#346aa2" stroke="#346aa2" stroke-width="1.51"/><path d="M1362,362L1458,259L1336,260Z" fill="#6581af" stroke="#6581af" stroke-width="1.51"/><path d="M1447,634L1364,550L1339,637Z" fill="#235e9c" stroke="#235e9c" stroke-width="1.51"/><path d="M1447,634L1339,637L1451,736Z" fill="#175393" stroke="#175393" stroke-width="1.51"/><path d="M172,56L77,151L197,151Z" fill="#e0ecf8" stroke="#e0ecf8" stroke-width="1.51"/><path d="M6,244L5,345L99,268Z" fill="#d2e5f2" stroke="#d2e5f2" stroke-width="1.51"/><path d="M-11,733L103,749L81,660Z" fill="#93abd4" stroke="#93abd4" stroke-width="1.51"/><path d="M1434,548L1443,437L1356,461Z" fill="#3a6ba1" stroke="#3a6ba1" stroke-width="1.51"/><path d="M1336,260L1359,144L1264,157Z" fill="#798fbe" stroke="#798fbe" stroke-width="1.51"/><path d="M6,560L-2,644L81,660Z" fill="#9dbade" stroke="#9dbade" stroke-width="1.51"/><path d="M-101,555L-2,644L6,560Z" fill="#a2c1e1" stroke="#a2c1e1" stroke-width="1.51"/><path d="M1250,-123L1156,-126L1172,-46Z" fill="#95a8d2" stroke="#95a8d2" stroke-width="1.51"/><path d="M1443,170L1359,144L1336,260Z" fill="#7588b5" stroke="#7588b5" stroke-width="1.51"/><path d="M1351,930L1359,846L1269,852Z" fill="#093e7f" stroke="#093e7f" stroke-width="1.51"/><path d="M1434,548L1531,438L1443,437Z" fill="#3b699e" stroke="#3b699e" stroke-width="1.51"/><path d="M1451,736L1339,637L1336,753Z" fill="#135194" stroke="#135194" stroke-width="1.51"/><path d="M77,151L6,244L99,268Z" fill="#dbe9f6" stroke="#dbe9f6" stroke-width="1.51"/><path d="M-91,353L-101,454L-1,447Z" fill="#bbd8ec" stroke="#bbd8ec" stroke-width="1.51"/><path d="M193,-123L183,-48L271,-34Z" fill="#e8f1fa" stroke="#e8f1fa" stroke-width="1.51"/><path d="M271,-34L183,-48L172,56Z" fill="#e9f1fb" stroke="#e9f1fb" stroke-width="1.51"/><path d="M172,56L74,53L77,151Z" fill="#e6f0fa" stroke="#e6f0fa" stroke-width="1.51"/><path d="M77,151L-9,154L6,244Z" fill="#e2edf8" stroke="#e2edf8" stroke-width="1.51"/><path d="M1341,1045L1264,1018L1150,1020Z" fill="#0a4184" stroke="#0a4184" stroke-width="1.51"/><path d="M1150,1020L1264,1018L1266,951Z" fill="#0c4386" stroke="#0c4386" stroke-width="1.51"/><path d="M1266,951L1351,930L1269,852Z" fill="#083d7e" stroke="#083d7e" stroke-width="1.51"/><path d="M1172,-46L1156,-126L1060,-33Z" fill="#97aed7" stroke="#97aed7" stroke-width="1.51"/><path d="M1268,-48L1172,-46L1263,50Z" fill="#93a3cf" stroke="#93a3cf" stroke-width="1.51"/><path d="M71,831L91,932L183,828Z" fill="#8290b9" stroke="#8290b9" stroke-width="1.51"/><path d="M182,940L183,1047L268,948Z" fill="#7886af" stroke="#7886af" stroke-width="1.51"/><path d="M5,944L91,932L71,831Z" fill="#838cb2" stroke="#838cb2" stroke-width="1.51"/><path d="M-2,644L-11,733L81,660Z" fill="#98b2d9" stroke="#98b2d9" stroke-width="1.51"/><path d="M-103,657L-11,733L-2,644Z" fill="#99b3da" stroke="#99b3da" stroke-width="1.51"/><path d="M-101,555L6,560L-1,447Z" fill="#aacae6" stroke="#aacae6" stroke-width="1.51"/><path d="M386,-130L277,-134L391,-40Z" fill="#dfebf7" stroke="#dfebf7" stroke-width="1.51"/><path d="M574,-149L277,-134L386,-130Z" fill="#d9e8f5" stroke="#d9e8f5" stroke-width="1.51"/><path d="M1443,437L1465,342L1362,362Z" fill="#5175a5" stroke="#5175a5" stroke-width="1.51"/><path d="M1531,438L1465,342L1443,437Z" fill="#4a71a1" stroke="#4a71a1" stroke-width="1.51"/><path d="M291,1038L183,1047L577,1033Z" fill="#6f80ab" stroke="#6f80ab" stroke-width="1.51"/><path d="M755,1038L1341,1045L963,1035Z" fill="#1d5592" stroke="#1d5592" stroke-width="1.51"/><path d="M96,1033L183,1047L182,940Z" fill="#7c88b0" stroke="#7c88b0" stroke-width="1.51"/><path d="M1359,144L1348,58L1264,157Z" fill="#8093bf" stroke="#8093bf" stroke-width="1.51"/><path d="M1446,65L1348,58L1359,144Z" fill="#808eb8" stroke="#808eb8" stroke-width="1.51"/><path d="M1341,1045L1351,930L1266,951Z" fill="#093b7b" stroke="#093b7b" stroke-width="1.51"/><path d="M1436,831L1451,736L1336,753Z" fill="#0b4589" stroke="#0b4589" stroke-width="1.51"/><path d="M1336,-41L1268,-48L1263,50Z" fill="#909ec9" stroke="#909ec9" stroke-width="1.51"/><path d="M1558,533L1531,438L1434,548Z" fill="#35659b" stroke="#35659b" stroke-width="1.51"/><path d="M1436,831L1336,753L1359,846Z" fill="#094287" stroke="#094287" stroke-width="1.51"/><path d="M91,-38L74,53L172,56Z" fill="#edf4fc" stroke="#edf4fc" stroke-width="1.51"/><path d="M1465,342L1458,259L1362,362Z" fill="#5e7aa7" stroke="#5e7aa7" stroke-width="1.51"/><path d="M1448,941L1436,831L1359,846Z" fill="#083674" stroke="#083674" stroke-width="1.51"/><path d="M1336,-41L1250,-123L1268,-48Z" fill="#909eca" stroke="#909eca" stroke-width="1.51"/><path d="M1458,259L1443,170L1336,260Z" fill="#6f82af" stroke="#6f82af" stroke-width="1.51"/><path d="M-11,62L-9,154L77,151Z" fill="#e8f1fa" stroke="#e8f1fa" stroke-width="1.51"/><path d="M-91,353L-1,447L5,345Z" fill="#c2ddee" stroke="#c2ddee" stroke-width="1.51"/><path d="M91,932L96,1033L182,940Z" fill="#7e89b1" stroke="#7e89b1" stroke-width="1.51"/><path d="M-11,733L-11,840L71,831Z" fill="#8f9eca" stroke="#8f9eca" stroke-width="1.51"/><path d="M183,-48L91,-38L172,56Z" fill="#edf4fc" stroke="#edf4fc" stroke-width="1.51"/><path d="M74,53L-11,62L77,151Z" fill="#eaf2fb" stroke="#eaf2fb" stroke-width="1.51"/><path d="M277,-134L193,-123L271,-34Z" fill="#e6f0fa" stroke="#e6f0fa" stroke-width="1.51"/><path d="M-91,353L5,345L6,244Z" fill="#d0e4f1" stroke="#d0e4f1" stroke-width="1.51"/><path d="M-11,733L-104,757L-11,840Z" fill="#92a3ce" stroke="#92a3ce" stroke-width="1.51"/><path d="M-118,264L-91,353L6,244Z" fill="#d4e6f3" stroke="#d4e6f3" stroke-width="1.51"/><path d="M-101,454L-101,555L-1,447Z" fill="#afcfe8" stroke="#afcfe8" stroke-width="1.51"/><path d="M1156,-126L1357,-144L1066,-136Z" fill="#95a8d2" stroke="#95a8d2" stroke-width="1.51"/><path d="M1268,-48L1250,-123L1172,-46Z" fill="#93a4cf" stroke="#93a4cf" stroke-width="1.51"/><path d="M1336,-41L1263,50L1348,58Z" fill="#8c9ac4" stroke="#8c9ac4" stroke-width="1.51"/><path d="M1458,259L1545,240L1443,170Z" fill="#6e80ab" stroke="#6e80ab" stroke-width="1.51"/><path d="M1465,342L1535,348L1458,259Z" fill="#5e7aa6" stroke="#5e7aa6" stroke-width="1.51"/><path d="M1558,533L1434,548L1447,634Z" fill="#275e97" stroke="#275e97" stroke-width="1.51"/><path d="M1558,533L1447,634L1550,659Z" fill="#225894" stroke="#225894" stroke-width="1.51"/><path d="M90,-132L91,-38L183,-48Z" fill="#eff5fd" stroke="#eff5fd" stroke-width="1.51"/><path d="M4,1023L96,1033L91,932Z" fill="#828bb2" stroke="#828bb2" stroke-width="1.51"/><path d="M1458,-37L1336,-41L1348,58Z" fill="#8a95bc" stroke="#8a95bc" stroke-width="1.51"/><path d="M-101,555L-103,657L-2,644Z" fill="#9fbcdf" stroke="#9fbcdf" stroke-width="1.51"/><path d="M-117,839L-103,657L-101,555Z" fill="#99b1d9" stroke="#99b1d9" stroke-width="1.51"/><path d="M1531,438L1535,348L1465,342Z" fill="#5174a3" stroke="#5174a3" stroke-width="1.51"/><path d="M1443,170L1446,65L1359,144Z" fill="#7a88b2" stroke="#7a88b2" stroke-width="1.51"/><path d="M183,1047L1341,1045L755,1038Z" fill="#3b699d" stroke="#3b699d" stroke-width="1.51"/><path d="M963,1035L1341,1045L1052,1031Z" fill="#134c8d" stroke="#134c8d" stroke-width="1.51"/><path d="M1052,1031L1341,1045L1150,1020Z" fill="#0f4788" stroke="#0f4788" stroke-width="1.51"/><path d="M1264,1018L1341,1045L1266,951Z" fill="#083d7f" stroke="#083d7f" stroke-width="1.51"/><path d="M1351,930L1448,941L1359,846Z" fill="#093572" stroke="#093572" stroke-width="1.51"/><path d="M-11,840L5,944L71,831Z" fill="#8892b9" stroke="#8892b9" stroke-width="1.51"/><path d="M-95,939L5,944L-11,840Z" fill="#878eb3" stroke="#878eb3" stroke-width="1.51"/><path d="M-24,-25L-11,62L74,53Z" fill="#f3f8fe" stroke="#f3f8fe" stroke-width="1.51"/><path d="M-9,154L-118,264L6,244Z" fill="#dfebf7" stroke="#dfebf7" stroke-width="1.51"/><path d="M1530,726L1447,634L1451,736Z" fill="#134c8d" stroke="#134c8d" stroke-width="1.51"/><path d="M1531,438L1648,437L1535,348Z" fill="#4a70a1" stroke="#4a70a1" stroke-width="1.51"/><path d="M1535,74L1446,65L1443,170Z" fill="#7b87b0" stroke="#7b87b0" stroke-width="1.51"/><path d="M1540,854L1530,726L1436,831Z" fill="#093e80" stroke="#093e80" stroke-width="1.51"/><path d="M1436,831L1530,726L1451,736Z" fill="#0c4386" stroke="#0c4386" stroke-width="1.51"/><path d="M1530,726L1550,659L1447,634Z" fill="#16508f" stroke="#16508f" stroke-width="1.51"/><path d="M-103,657L-104,757L-11,733Z" fill="#97acd6" stroke="#97acd6" stroke-width="1.51"/><path d="M-117,839L-104,757L-103,657Z" fill="#94a7d1" stroke="#94a7d1" stroke-width="1.51"/><path d="M1341,1045L1448,941L1351,930Z" fill="#093573" stroke="#093573" stroke-width="1.51"/><path d="M-101,454L-118,264L-101,555Z" fill="#bad7ec" stroke="#bad7ec" stroke-width="1.51"/><path d="M-91,353L-118,264L-101,454Z" fill="#c7e0ef" stroke="#c7e0ef" stroke-width="1.51"/><path d="M-122,142L-118,264L-9,154Z" fill="#e3edf9" stroke="#e3edf9" stroke-width="1.51"/><path d="M1535,348L1545,240L1458,259Z" fill="#647ca8" stroke="#647ca8" stroke-width="1.51"/><path d="M1654,269L1545,240L1535,348Z" fill="#647ca7" stroke="#647ca7" stroke-width="1.51"/><path d="M193,-123L90,-132L183,-48Z" fill="#ecf4fc" stroke="#ecf4fc" stroke-width="1.51"/><path d="M91,-38L-24,-25L74,53Z" fill="#f4f9fe" stroke="#f4f9fe" stroke-width="1.51"/><path d="M-11,62L-122,142L-9,154Z" fill="#eaf2fb" stroke="#eaf2fb" stroke-width="1.51"/><path d="M277,-134L90,-132L193,-123Z" fill="#eaf2fb" stroke="#eaf2fb" stroke-width="1.51"/><path d="M-8,-149L90,-132L277,-134Z" fill="#eff5fd" stroke="#eff5fd" stroke-width="1.51"/><path d="M5,944L4,1023L91,932Z" fill="#848db3" stroke="#848db3" stroke-width="1.51"/><path d="M96,1033L-123,1043L183,1047Z" fill="#838cb2" stroke="#838cb2" stroke-width="1.51"/><path d="M-95,939L4,1023L5,944Z" fill="#878eb3" stroke="#878eb3" stroke-width="1.51"/><path d="M-118,264L-117,839L-101,555Z" fill="#a6c6e3" stroke="#a6c6e3" stroke-width="1.51"/><path d="M-104,757L-117,839L-11,840Z" fill="#8f9dc8" stroke="#8f9dc8" stroke-width="1.51"/><path d="M1537,944L1540,854L1448,941Z" fill="#08306b" stroke="#08306b" stroke-width="1.51"/><path d="M1448,941L1540,854L1436,831Z" fill="#083370" stroke="#083370" stroke-width="1.51"/><path d="M1655,737L1636,632L1550,659Z" fill="#164f8f" stroke="#164f8f" stroke-width="1.51"/><path d="M1550,659L1636,632L1558,533Z" fill="#225894" stroke="#225894" stroke-width="1.51"/><path d="M-8,-149L-24,-25L91,-38Z" fill="#f6faff" stroke="#f6faff" stroke-width="1.51"/><path d="M1654,269L1558,174L1545,240Z" fill="#6e80ab" stroke="#6e80ab" stroke-width="1.51"/><path d="M1545,240L1558,174L1443,170Z" fill="#7282ac" stroke="#7282ac" stroke-width="1.51"/><path d="M1458,-37L1348,58L1446,65Z" fill="#858fb5" stroke="#858fb5" stroke-width="1.51"/><path d="M1458,-37L1357,-144L1336,-41Z" fill="#8a94bb" stroke="#8a94bb" stroke-width="1.51"/><path d="M1336,-41L1357,-144L1250,-123Z" fill="#8e9bc5" stroke="#8e9bc5" stroke-width="1.51"/><path d="M1250,-123L1357,-144L1156,-126Z" fill="#92a2ce" stroke="#92a2ce" stroke-width="1.51"/><path d="M1066,-136L1357,-144L574,-149Z" fill="#9fbbde" stroke="#9fbbde" stroke-width="1.51"/><path d="M-123,69L-122,142L-11,62Z" fill="#edf4fc" stroke="#edf4fc" stroke-width="1.51"/><path d="M-118,264L-122,142L-117,839Z" fill="#bcd9ec" stroke="#bcd9ec" stroke-width="1.51"/><path d="M1535,74L1458,-37L1446,65Z" fill="#838cb2" stroke="#838cb2" stroke-width="1.51"/><path d="M1341,1045L1448,1046L1448,941Z" fill="#08326e" stroke="#08326e" stroke-width="1.51"/><path d="M183,1047L1448,1046L1341,1045Z" fill="#205793" stroke="#205793" stroke-width="1.51"/><path d="M1558,174L1535,74L1443,170Z" fill="#7785ae" stroke="#7785ae" stroke-width="1.51"/><path d="M-117,839L-95,939L-11,840Z" fill="#8a93ba" stroke="#8a93ba" stroke-width="1.51"/><path d="M1558,533L1648,437L1531,438Z" fill="#3c699e" stroke="#3c699e" stroke-width="1.51"/><path d="M1655,737L1550,659L1530,726Z" fill="#134b8c" stroke="#134b8c" stroke-width="1.51"/><path d="M1649,543L1648,437L1558,533Z" fill="#35659b" stroke="#35659b" stroke-width="1.51"/><path d="M1636,55L1560,-22L1535,74Z" fill="#838cb2" stroke="#838cb2" stroke-width="1.51"/><path d="M1636,632L1649,543L1558,533Z" fill="#285e97" stroke="#285e97" stroke-width="1.51"/><path d="M1540,854L1655,737L1530,726Z" fill="#0b4285" stroke="#0b4285" stroke-width="1.51"/><path d="M1448,1046L1537,944L1448,941Z" fill="#08306b" stroke="#08306b" stroke-width="1.51"/><path d="M-24,-25L-123,69L-11,62Z" fill="#f3f8fd" stroke="#f3f8fd" stroke-width="1.51"/><path d="M-122,142L-123,1043L-117,839Z" fill="#9ab3da" stroke="#9ab3da" stroke-width="1.51"/><path d="M1648,437L1656,353L1535,348Z" fill="#5173a3" stroke="#5173a3" stroke-width="1.51"/><path d="M1649,543L1656,353L1648,437Z" fill="#416ca0" stroke="#416ca0" stroke-width="1.51"/><path d="M1656,353L1654,269L1535,348Z" fill="#5d79a6" stroke="#5d79a6" stroke-width="1.51"/><path d="M-24,-25L-112,-35L-123,69Z" fill="#f7fbff" stroke="#f7fbff" stroke-width="1.51"/><path d="M90,-132L-8,-149L91,-38Z" fill="#f3f8fd" stroke="#f3f8fd" stroke-width="1.51"/><path d="M574,-149L-8,-149L277,-134Z" fill="#e4eef9" stroke="#e4eef9" stroke-width="1.51"/><path d="M1560,-22L1458,-37L1535,74Z" fill="#868eb3" stroke="#868eb3" stroke-width="1.51"/><path d="M1554,-143L1459,-127L1458,-37Z" fill="#878eb3" stroke="#878eb3" stroke-width="1.51"/><path d="M1458,-37L1459,-127L1357,-144Z" fill="#8890b5" stroke="#8890b5" stroke-width="1.51"/><path d="M1649,543L1655,737L1656,353Z" fill="#2c6199" stroke="#2c6199" stroke-width="1.51"/><path d="M1636,632L1655,737L1649,543Z" fill="#1d5592" stroke="#1d5592" stroke-width="1.51"/><path d="M1640,853L1655,737L1540,854Z" fill="#093c7d" stroke="#093c7d" stroke-width="1.51"/><path d="M-99,-122L-112,-35L-24,-25Z" fill="#f7fbff" stroke="#f7fbff" stroke-width="1.51"/><path d="M1640,941L1640,853L1540,854Z" fill="#08326e" stroke="#08326e" stroke-width="1.51"/><path d="M1448,1046L1535,1045L1537,944Z" fill="#08306b" stroke="#08306b" stroke-width="1.51"/><path d="M1636,55L1535,74L1558,174Z" fill="#7c88b0" stroke="#7c88b0" stroke-width="1.51"/><path d="M1640,941L1540,854L1537,944Z" fill="#08306b" stroke="#08306b" stroke-width="1.51"/><path d="M1656,353L1656,166L1654,269Z" fill="#687da9" stroke="#687da9" stroke-width="1.51"/><path d="M1654,269L1656,166L1558,174Z" fill="#7181ac" stroke="#7181ac" stroke-width="1.51"/><path d="M-117,839L-123,1043L-95,939Z" fill="#878eb3" stroke="#878eb3" stroke-width="1.51"/><path d="M-95,939L-123,1043L4,1023Z" fill="#878eb3" stroke="#878eb3" stroke-width="1.51"/><path d="M4,1023L-123,1043L96,1033Z" fill="#878eb3" stroke="#878eb3" stroke-width="1.51"/><path d="M-123,69L-123,1043L-122,142Z" fill="#bbd8ec" stroke="#bbd8ec" stroke-width="1.51"/><path d="M-8,-149L-99,-122L-24,-25Z" fill="#f7fbff" stroke="#f7fbff" stroke-width="1.51"/><path d="M1656,166L1636,55L1558,174Z" fill="#7886af" stroke="#7886af" stroke-width="1.51"/><path d="M1560,-22L1554,-143L1458,-37Z" fill="#878eb3" stroke="#878eb3" stroke-width="1.51"/><path d="M1644,1024L1640,941L1537,944Z" fill="#08306b" stroke="#08306b" stroke-width="1.51"/><path d="M1640,853L1640,941L1655,737Z" fill="#093877" stroke="#093877" stroke-width="1.51"/><path d="M1644,-136L1554,-143L1560,-22Z" fill="#878eb3" stroke="#878eb3" stroke-width="1.51"/><path d="M1459,-127L1554,-143L1357,-144Z" fill="#878eb3" stroke="#878eb3" stroke-width="1.51"/><path d="M1357,-144L1554,-143L574,-149Z" fill="#96abd5" stroke="#96abd5" stroke-width="1.51"/><path d="M1535,1045L1644,1024L1537,944Z" fill="#08306b" stroke="#08306b" stroke-width="1.51"/><path d="M1640,941L1644,1024L1655,737Z" fill="#08306b" stroke="#08306b" stroke-width="1.51"/><path d="M1636,55L1653,-26L1560,-22Z" fill="#868eb3" stroke="#868eb3" stroke-width="1.51"/><path d="M1656,166L1653,-26L1636,55Z" fill="#808ab1" stroke="#808ab1" stroke-width="1.51"/><path d="M1653,-26L1644,-136L1560,-22Z" fill="#878eb3" stroke="#878eb3" stroke-width="1.51"/></svg>