<svg xmlns="http://www.w3.org/2000/svg" width="1440" height="900"><path d="M864,511L785,365L561,558Z" fill="#75c8c7" stroke="#75c8c7" stroke-width="1.51"/><path d="M785,365L652,349L561,558Z" fill="#89d0c1" stroke="#89d0c1" stroke-width="1.51"/><path d="M561,558L865,785L864,511Z" fill="#5bb3c9" stroke="#5bb3c9" stroke-width="1.51"/><path d="M561,558L576,821L865,785Z" fill="#60a6bc" stroke="#60a6bc" stroke-width="1.51"/><path d="M329,314L374,561L561,558Z" fill="#9cd6c4" stroke="#9cd6c4" stroke-width="1.51"/><path d="M411,759L576,821L561,558Z" fill="#77aeb9" stroke="#77aeb9" stroke-width="1.51"/><path d="M864,511L1087,288L785,365Z" fill="#76c2c7" stroke="#76c2c7" stroke-width="1.51"/><path d="M865,785L1080,587L864,511Z" fill="#42a3cb" stroke="#42a3cb" stroke-width="1.51"/><path d="M374,561L411,759L561,558Z" fill="#86c0c3" stroke="#86c0c3" stroke-width="1.51"/><path d="M652,349L329,314L561,558Z" fill="#9ed8bb" stroke="#9ed8bb" stroke-width="1.51"/><path d="M785,365L801,79L652,349Z" fill="#9ed7c3" stroke="#9ed7c3" stroke-width="1.51"/><path d="M652,349L440,126L329,314Z" fill="#bbe4bd" stroke="#bbe4bd" stroke-width="1.51"/><path d="M1020,130L801,79L785,365Z" fill="#9cd2ce" stroke="#9cd2ce" stroke-width="1.51"/><path d="M865,785L1057,758L1080,587Z" fill="#318fc0" stroke="#318fc0" stroke-width="1.51"/><path d="M1080,587L1087,288L864,511Z" fill="#5db2c6" stroke="#5db2c6" stroke-width="1.51"/><path d="M801,79L607,60L652,349Z" fill="#afdfc9" stroke="#afdfc9" stroke-width="1.51"/><path d="M607,60L440,126L652,349Z" fill="#bbe4c2" stroke="#bbe4c2" stroke-width="1.51"/><path d="M1087,288L1020,130L785,365Z" fill="#8cc5c7" stroke="#8cc5c7" stroke-width="1.51"/><path d="M374,561L130,818L411,759Z" fill="#8ab5c3" stroke="#8ab5c3" stroke-width="1.51"/><path d="M329,314L217,511L374,561Z" fill="#a7dbc9" stroke="#a7dbc9" stroke-width="1.51"/><path d="M1080,587L1224,515L1087,288Z" fill="#55a5c0" stroke="#55a5c0" stroke-width="1.51"/><path d="M1087,288L1280,160L1020,130Z" fill="#8bb6c3" stroke="#8bb6c3" stroke-width="1.51"/><path d="M1319,769L1224,515L1080,587Z" fill="#2d88bd" stroke="#2d88bd" stroke-width="1.51"/><path d="M592,1045L818,1041L576,821Z" fill="#5785a1" stroke="#5785a1" stroke-width="1.51"/><path d="M576,821L818,1041L865,785Z" fill="#4a84a8" stroke="#4a84a8" stroke-width="1.51"/><path d="M865,785L1032,1027L1057,758Z" fill="#2a76ad" stroke="#2a76ad" stroke-width="1.51"/><path d="M1224,515L1249,378L1087,288Z" fill="#65a3b9" stroke="#65a3b9" stroke-width="1.51"/><path d="M330,1052L576,821L411,759Z" fill="#7392a5" stroke="#7392a5" stroke-width="1.51"/><path d="M330,1052L592,1045L576,821Z" fill="#6c8b9e" stroke="#6c8b9e" stroke-width="1.51"/><path d="M329,314L120,398L217,511Z" fill="#b5e2ca" stroke="#b5e2ca" stroke-width="1.51"/><path d="M217,511L130,818L374,561Z" fill="#95c4ce" stroke="#95c4ce" stroke-width="1.51"/><path d="M204,140L120,398L329,314Z" fill="#cbebc9" stroke="#cbebc9" stroke-width="1.51"/><path d="M1020,130L883,-69L801,79Z" fill="#a7d5dd" stroke="#a7d5dd" stroke-width="1.51"/><path d="M801,79L634,-110L607,60Z" fill="#bfe6d7" stroke="#bfe6d7" stroke-width="1.51"/><path d="M607,60L414,-83L440,126Z" fill="#d2edd2" stroke="#d2edd2" stroke-width="1.51"/><path d="M1047,-103L883,-69L1020,130Z" fill="#a6cedd" stroke="#a6cedd" stroke-width="1.51"/><path d="M883,-69L634,-110L801,79Z" fill="#b7e1dc" stroke="#b7e1dc" stroke-width="1.51"/><path d="M440,126L204,140L329,314Z" fill="#d1edca" stroke="#d1edca" stroke-width="1.51"/><path d="M1057,758L1319,769L1080,587Z" fill="#237fb8" stroke="#237fb8" stroke-width="1.51"/><path d="M818,1041L1032,1027L865,785Z" fill="#3277a9" stroke="#3277a9" stroke-width="1.51"/><path d="M414,-83L204,140L440,126Z" fill="#dcf1d5" stroke="#dcf1d5" stroke-width="1.51"/><path d="M634,-110L414,-83L607,60Z" fill="#ceecd3" stroke="#ceecd3" stroke-width="1.51"/><path d="M-48,523L130,818L217,511Z" fill="#9fcbd7" stroke="#9fcbd7" stroke-width="1.51"/><path d="M1249,378L1280,160L1087,288Z" fill="#7caab9" stroke="#7caab9" stroke-width="1.51"/><path d="M183,946L330,1052L411,759Z" fill="#7c91a7" stroke="#7c91a7" stroke-width="1.51"/><path d="M592,1045L663,1177L818,1041Z" fill="#5284a2" stroke="#5284a2" stroke-width="1.51"/><path d="M1224,515L1454,512L1249,378Z" fill="#4d91b4" stroke="#4d91b4" stroke-width="1.51"/><path d="M1249,378L1463,377L1280,160Z" fill="#7299ac" stroke="#7299ac" stroke-width="1.51"/><path d="M1235,1035L1319,769L1057,758Z" fill="#1261a2" stroke="#1261a2" stroke-width="1.51"/><path d="M818,1041L786,1207L1032,1027Z" fill="#3779a8" stroke="#3779a8" stroke-width="1.51"/><path d="M445,1265L663,1177L592,1045Z" fill="#64899d" stroke="#64899d" stroke-width="1.51"/><path d="M130,818L183,946L411,759Z" fill="#849eb6" stroke="#849eb6" stroke-width="1.51"/><path d="M883,-69L643,-271L634,-110Z" fill="#bce4da" stroke="#bce4da" stroke-width="1.51"/><path d="M1241,-69L1047,-103L1020,130Z" fill="#9ec0d6" stroke="#9ec0d6" stroke-width="1.51"/><path d="M663,1177L786,1207L818,1041Z" fill="#4980a4" stroke="#4980a4" stroke-width="1.51"/><path d="M1319,769L1454,512L1224,515Z" fill="#2e7eb3" stroke="#2e7eb3" stroke-width="1.51"/><path d="M120,398L-48,523L217,511Z" fill="#b2ded6" stroke="#b2ded6" stroke-width="1.51"/><path d="M-8,135L-27,354L120,398Z" fill="#d5efd4" stroke="#d5efd4" stroke-width="1.51"/><path d="M-8,135L120,398L204,140Z" fill="#dbf1d4" stroke="#dbf1d4" stroke-width="1.51"/><path d="M1032,1027L1235,1035L1057,758Z" fill="#1b629e" stroke="#1b629e" stroke-width="1.51"/><path d="M1319,769L1479,828L1454,512Z" fill="#1a63a0" stroke="#1a63a0" stroke-width="1.51"/><path d="M1107,1220L1235,1035L1032,1027Z" fill="#1a619d" stroke="#1a619d" stroke-width="1.51"/><path d="M130,818L-44,1001L183,946Z" fill="#8896b3" stroke="#8896b3" stroke-width="1.51"/><path d="M-27,354L-48,523L120,398Z" fill="#bfe6d7" stroke="#bfe6d7" stroke-width="1.51"/><path d="M1454,512L1463,377L1249,378Z" fill="#568aa7" stroke="#568aa7" stroke-width="1.51"/><path d="M634,-110L643,-271L414,-83Z" fill="#cdecd3" stroke="#cdecd3" stroke-width="1.51"/><path d="M832,-380L643,-271L883,-69Z" fill="#b6dfdd" stroke="#b6dfdd" stroke-width="1.51"/><path d="M1047,-103L1062,-286L883,-69Z" fill="#a5ccdc" stroke="#a5ccdc" stroke-width="1.51"/><path d="M1280,160L1241,-69L1020,130Z" fill="#93b5cc" stroke="#93b5cc" stroke-width="1.51"/><path d="M1455,98L1241,-69L1280,160Z" fill="#8da4c1" stroke="#8da4c1" stroke-width="1.51"/><path d="M-27,354L-223,516L-48,523Z" fill="#bae3db" stroke="#bae3db" stroke-width="1.51"/><path d="M127,-77L-8,135L204,140Z" fill="#eaf7e3" stroke="#eaf7e3" stroke-width="1.51"/><path d="M127,-77L204,140L414,-83Z" fill="#e8f6e1" stroke="#e8f6e1" stroke-width="1.51"/><path d="M201,1181L445,1265L330,1052Z" fill="#7b91a6" stroke="#7b91a6" stroke-width="1.51"/><path d="M330,1052L445,1265L592,1045Z" fill="#708da0" stroke="#708da0" stroke-width="1.51"/><path d="M663,1177L445,1265L786,1207Z" fill="#5b86a0" stroke="#5b86a0" stroke-width="1.51"/><path d="M349,-326L127,-77L414,-83Z" fill="#e5f5de" stroke="#e5f5de" stroke-width="1.51"/><path d="M445,1265L1107,1220L786,1207Z" fill="#467fa5" stroke="#467fa5" stroke-width="1.51"/><path d="M786,1207L1107,1220L1032,1027Z" fill="#2b70a5" stroke="#2b70a5" stroke-width="1.51"/><path d="M1454,512L1723,584L1463,377Z" fill="#457ea5" stroke="#457ea5" stroke-width="1.51"/><path d="M1498,951L1479,828L1319,769Z" fill="#094a8b" stroke="#094a8b" stroke-width="1.51"/><path d="M1498,951L1319,769L1235,1035Z" fill="#094a8b" stroke="#094a8b" stroke-width="1.51"/><path d="M-48,523L-82,799L130,818Z" fill="#9cbcd4" stroke="#9cbcd4" stroke-width="1.51"/><path d="M183,946L201,1181L330,1052Z" fill="#8092ab" stroke="#8092ab" stroke-width="1.51"/><path d="M-223,516L-82,799L-48,523Z" fill="#a6cedd" stroke="#a6cedd" stroke-width="1.51"/><path d="M-44,1001L201,1181L183,946Z" fill="#8695b2" stroke="#8695b2" stroke-width="1.51"/><path d="M1463,377L1455,98L1280,160Z" fill="#7c96ab" stroke="#7c96ab" stroke-width="1.51"/><path d="M1505,-72L1455,98L1730,109Z" fill="#8996b4" stroke="#8996b4" stroke-width="1.51"/><path d="M1241,-69L1062,-286L1047,-103Z" fill="#9dbfd5" stroke="#9dbfd5" stroke-width="1.51"/><path d="M1243,-374L1062,-286L1241,-69Z" fill="#9ab7d2" stroke="#9ab7d2" stroke-width="1.51"/><path d="M643,-271L349,-326L414,-83Z" fill="#d7f0d5" stroke="#d7f0d5" stroke-width="1.51"/><path d="M1062,-286L832,-380L883,-69Z" fill="#aad4e0" stroke="#aad4e0" stroke-width="1.51"/><path d="M1107,1220L1226,1227L1235,1035Z" fill="#145a9a" stroke="#145a9a" stroke-width="1.51"/><path d="M1459,1268L1226,1227L1107,1220Z" fill="#095396" stroke="#095396" stroke-width="1.51"/><path d="M832,-380L349,-326L643,-271Z" fill="#c8ead5" stroke="#c8ead5" stroke-width="1.51"/><path d="M-82,799L-44,1001L130,818Z" fill="#8f9dbd" stroke="#8f9dbd" stroke-width="1.51"/><path d="M1479,828L1723,584L1454,512Z" fill="#256aa2" stroke="#256aa2" stroke-width="1.51"/><path d="M1459,1268L1498,951L1235,1035Z" fill="#094486" stroke="#094486" stroke-width="1.51"/><path d="M-82,799L-316,1019L-44,1001Z" fill="#8d98b8" stroke="#8d98b8" stroke-width="1.51"/><path d="M-271,381L-223,516L-27,354Z" fill="#c2e7d8" stroke="#c2e7d8" stroke-width="1.51"/><path d="M-20,-373L-97,-50L127,-77Z" fill="#f7fcf0" stroke="#f7fcf0" stroke-width="1.51"/><path d="M127,-77L-97,-50L-8,135Z" fill="#f6fcef" stroke="#f6fcef" stroke-width="1.51"/><path d="M-318,146L-271,381L-27,354Z" fill="#d7efd5" stroke="#d7efd5" stroke-width="1.51"/><path d="M1744,292L1455,98L1463,377Z" fill="#748ea2" stroke="#748ea2" stroke-width="1.51"/><path d="M1455,98L1505,-72L1241,-69Z" fill="#8f9dbd" stroke="#8f9dbd" stroke-width="1.51"/><path d="M-318,146L-27,354L-8,135Z" fill="#e3f4dc" stroke="#e3f4dc" stroke-width="1.51"/><path d="M832,-380L185,-366L349,-326Z" fill="#d8f0d6" stroke="#d8f0d6" stroke-width="1.51"/><path d="M349,-326L185,-366L127,-77Z" fill="#eaf7e3" stroke="#eaf7e3" stroke-width="1.51"/><path d="M-313,778L-82,799L-223,516Z" fill="#9dbfd5" stroke="#9dbfd5" stroke-width="1.51"/><path d="M-289,1198L-42,1186L-44,1001Z" fill="#8d98b8" stroke="#8d98b8" stroke-width="1.51"/><path d="M-44,1001L-42,1186L201,1181Z" fill="#8a97b6" stroke="#8a97b6" stroke-width="1.51"/><path d="M201,1181L-42,1186L445,1265Z" fill="#8193ad" stroke="#8193ad" stroke-width="1.51"/><path d="M1738,768L1723,584L1479,828Z" fill="#165d9b" stroke="#165d9b" stroke-width="1.51"/><path d="M1506,-291L1243,-374L1241,-69Z" fill="#92a6c6" stroke="#92a6c6" stroke-width="1.51"/><path d="M1062,-286L1243,-374L832,-380Z" fill="#a1c6d9" stroke="#a1c6d9" stroke-width="1.51"/><path d="M-271,381L-313,778L-223,516Z" fill="#acd8e1" stroke="#acd8e1" stroke-width="1.51"/><path d="M1723,584L1744,292L1463,377Z" fill="#5685a1" stroke="#5685a1" stroke-width="1.51"/><path d="M1723,584L1891,520L1744,292Z" fill="#4b81a4" stroke="#4b81a4" stroke-width="1.51"/><path d="M1668,974L1738,768L1479,828Z" fill="#094789" stroke="#094789" stroke-width="1.51"/><path d="M1668,974L1479,828L1498,951Z" fill="#084081" stroke="#084081" stroke-width="1.51"/><path d="M1459,1268L1668,974L1498,951Z" fill="#084081" stroke="#084081" stroke-width="1.51"/><path d="M1226,1227L1459,1268L1235,1035Z" fill="#094e91" stroke="#094e91" stroke-width="1.51"/><path d="M445,1265L1459,1268L1107,1220Z" fill="#276ca4" stroke="#276ca4" stroke-width="1.51"/><path d="M-271,381L-318,146L-313,778Z" fill="#bee5d9" stroke="#bee5d9" stroke-width="1.51"/><path d="M-97,-50L-318,146L-8,135Z" fill="#eff9e9" stroke="#eff9e9" stroke-width="1.51"/><path d="M-313,-76L-318,146L-97,-50Z" fill="#f6fbef" stroke="#f6fbef" stroke-width="1.51"/><path d="M1744,292L1730,109L1455,98Z" fill="#7e92a9" stroke="#7e92a9" stroke-width="1.51"/><path d="M1505,-72L1506,-291L1241,-69Z" fill="#8e9bbb" stroke="#8e9bbb" stroke-width="1.51"/><path d="M1743,-118L1506,-291L1505,-72Z" fill="#8d98b8" stroke="#8d98b8" stroke-width="1.51"/><path d="M185,-366L-20,-373L127,-77Z" fill="#f1faea" stroke="#f1faea" stroke-width="1.51"/><path d="M832,-380L-20,-373L185,-366Z" fill="#e3f4dc" stroke="#e3f4dc" stroke-width="1.51"/><path d="M-313,778L-316,1019L-82,799Z" fill="#909fbf" stroke="#909fbf" stroke-width="1.51"/><path d="M-318,146L-316,1019L-313,778Z" fill="#a2c7da" stroke="#a2c7da" stroke-width="1.51"/><path d="M-230,-368L-313,-76L-97,-50Z" fill="#f7fcf0" stroke="#f7fcf0" stroke-width="1.51"/><path d="M1965,830L1891,520L1738,768Z" fill="#19609d" stroke="#19609d" stroke-width="1.51"/><path d="M1738,768L1891,520L1723,584Z" fill="#286da4" stroke="#286da4" stroke-width="1.51"/><path d="M1744,292L1967,84L1730,109Z" fill="#7e93aa" stroke="#7e93aa" stroke-width="1.51"/><path d="M1730,109L1743,-118L1505,-72Z" fill="#8d98b8" stroke="#8d98b8" stroke-width="1.51"/><path d="M1967,84L1743,-118L1730,109Z" fill="#8a97b6" stroke="#8a97b6" stroke-width="1.51"/><path d="M-316,1019L-289,1198L-44,1001Z" fill="#8d98b8" stroke="#8d98b8" stroke-width="1.51"/><path d="M-42,1186L-289,1198L445,1265Z" fill="#8a97b6" stroke="#8a97b6" stroke-width="1.51"/><path d="M1459,1268L1668,1267L1668,974Z" fill="#084081" stroke="#084081" stroke-width="1.51"/><path d="M1668,974L1965,830L1738,768Z" fill="#094789" stroke="#094789" stroke-width="1.51"/><path d="M-20,-373L-230,-368L-97,-50Z" fill="#f7fcf0" stroke="#f7fcf0" stroke-width="1.51"/><path d="M1965,830L1988,386L1891,520Z" fill="#3074a8" stroke="#3074a8" stroke-width="1.51"/><path d="M1891,520L1988,386L1744,292Z" fill="#5a86a0" stroke="#5a86a0" stroke-width="1.51"/><path d="M1947,1043L1965,830L1668,974Z" fill="#084081" stroke="#084081" stroke-width="1.51"/><path d="M1988,386L1967,84L1744,292Z" fill="#758ea2" stroke="#758ea2" stroke-width="1.51"/><path d="M1506,-291L1739,-372L1243,-374Z" fill="#8d98b8" stroke="#8d98b8" stroke-width="1.51"/><path d="M1243,-374L1739,-372L832,-380Z" fill="#95adcd" stroke="#95adcd" stroke-width="1.51"/><path d="M1743,-118L1739,-372L1506,-291Z" fill="#8d98b8" stroke="#8d98b8" stroke-width="1.51"/><path d="M1961,-132L1739,-372L1743,-118Z" fill="#8d98b8" stroke="#8d98b8" stroke-width="1.51"/><path d="M1894,1187L1947,1043L1668,974Z" fill="#084081" stroke="#084081" stroke-width="1.51"/><path d="M1668,1267L1894,1187L1668,974Z" fill="#084081" stroke="#084081" stroke-width="1.51"/><path d="M1967,84L1961,-132L1743,-118Z" fill="#8d98b8" stroke="#8d98b8" stroke-width="1.51"/><path d="M1972,-355L1961,-132L1967,84Z" fill="#8d98b8" stroke="#8d98b8" stroke-width="1.51"/><path d="M1988,386L1972,-355L1967,84Z" fill="#8997b5" stroke="#8997b5" stroke-width="1.51"/><path d="M1961,-132L1972,-355L1739,-372Z" fill="#8d98b8" stroke="#8d98b8" stroke-width="1.51"/></svg>