<svg xmlns="http://www.w3.org/2000/svg" width="1440" height="900"><path d="M857,594L1079,787L1002,588Z" fill="#5d5d5d" stroke="#5d5d5d" stroke-width="1.51"/><path d="M857,594L781,817L1079,787Z" fill="#555555" stroke="#555555" stroke-width="1.51"/><path d="M781,817L1028,983L1079,787Z" fill="#3a3a3a" stroke="#3a3a3a" stroke-width="1.51"/><path d="M781,817L833,992L1028,983Z" fill="#3b3b3b" stroke="#3b3b3b" stroke-width="1.51"/><path d="M1079,787L1314,510L1002,588Z" fill="#525252" stroke="#525252" stroke-width="1.51"/><path d="M1028,983L1229,827L1079,787Z" fill="#2c2c2c" stroke="#2c2c2c" stroke-width="1.51"/><path d="M781,817L647,988L833,992Z" fill="#464646" stroke="#464646" stroke-width="1.51"/><path d="M857,594L606,750L781,817Z" fill="#666666" stroke="#666666" stroke-width="1.51"/><path d="M1002,588L1066,373L857,594Z" fill="#737373" stroke="#737373" stroke-width="1.51"/><path d="M857,594L619,513L606,750Z" fill="#7e7e7e" stroke="#7e7e7e" stroke-width="1.51"/><path d="M1314,510L1066,373L1002,588Z" fill="#676767" stroke="#676767" stroke-width="1.51"/><path d="M793,293L619,513L857,594Z" fill="#909090" stroke="#909090" stroke-width="1.51"/><path d="M606,750L647,988L781,817Z" fill="#545454" stroke="#545454" stroke-width="1.51"/><path d="M1028,983L1261,965L1229,827Z" fill="#202020" stroke="#202020" stroke-width="1.51"/><path d="M1229,827L1314,510L1079,787Z" fill="#3b3b3b" stroke="#3b3b3b" stroke-width="1.51"/><path d="M1448,765L1314,510L1229,827Z" fill="#2f2f2f" stroke="#2f2f2f" stroke-width="1.51"/><path d="M1066,373L793,293L857,594Z" fill="#898989" stroke="#898989" stroke-width="1.51"/><path d="M647,988L867,1182L833,992Z" fill="#444444" stroke="#444444" stroke-width="1.51"/><path d="M833,992L867,1182L1028,983Z" fill="#393939" stroke="#393939" stroke-width="1.51"/><path d="M1028,983L1305,1178L1261,965Z" fill="#1d1d1d" stroke="#1d1d1d" stroke-width="1.51"/><path d="M1261,965L1448,765L1229,827Z" fill="#181818" stroke="#181818" stroke-width="1.51"/><path d="M793,293L552,382L619,513Z" fill="#a6a6a6" stroke="#a6a6a6" stroke-width="1.51"/><path d="M362,548L387,807L606,750Z" fill="#868686" stroke="#868686" stroke-width="1.51"/><path d="M606,750L387,807L647,988Z" fill="#626262" stroke="#626262" stroke-width="1.51"/><path d="M647,988L649,1281L867,1182Z" fill="#494949" stroke="#494949" stroke-width="1.51"/><path d="M362,548L606,750L619,513Z" fill="#929292" stroke="#929292" stroke-width="1.51"/><path d="M1066,373L867,87L793,293Z" fill="#a0a0a0" stroke="#a0a0a0" stroke-width="1.51"/><path d="M1314,510L1318,313L1066,373Z" fill="#666666" stroke="#666666" stroke-width="1.51"/><path d="M1478,305L1318,313L1314,510Z" fill="#5b5b5b" stroke="#5b5b5b" stroke-width="1.51"/><path d="M1261,965L1542,1006L1448,765Z" fill="#030403" stroke="#030403" stroke-width="1.51"/><path d="M867,1182L1075,1281L1028,983Z" fill="#323232" stroke="#323232" stroke-width="1.51"/><path d="M1075,1281L1305,1178L1028,983Z" fill="#242424" stroke="#242424" stroke-width="1.51"/><path d="M552,382L362,548L619,513Z" fill="#a6a6a6" stroke="#a6a6a6" stroke-width="1.51"/><path d="M387,807L363,948L647,988Z" fill="#5f5f5f" stroke="#5f5f5f" stroke-width="1.51"/><path d="M867,1182L649,1281L1075,1281Z" fill="#3d3d3d" stroke="#3d3d3d" stroke-width="1.51"/><path d="M200,1023L363,948L115,748Z" fill="#6e6e6e" stroke="#6e6e6e" stroke-width="1.51"/><path d="M434,1285L649,1281L647,988Z" fill="#575757" stroke="#575757" stroke-width="1.51"/><path d="M1448,765L1535,518L1314,510Z" fill="#353535" stroke="#353535" stroke-width="1.51"/><path d="M1672,565L1535,518L1448,765Z" fill="#323232" stroke="#323232" stroke-width="1.51"/><path d="M1055,84L867,87L1066,373Z" fill="#9f9f9f" stroke="#9f9f9f" stroke-width="1.51"/><path d="M793,293L603,115L552,382Z" fill="#bababa" stroke="#bababa" stroke-width="1.51"/><path d="M552,382L396,281L362,548Z" fill="#b9b9b9" stroke="#b9b9b9" stroke-width="1.51"/><path d="M1318,313L1055,84L1066,373Z" fill="#858585" stroke="#858585" stroke-width="1.51"/><path d="M1443,1189L1542,1006L1261,965Z" fill="#030403" stroke="#030403" stroke-width="1.51"/><path d="M1305,1178L1443,1189L1261,965Z" fill="#0e0e0e" stroke="#0e0e0e" stroke-width="1.51"/><path d="M1075,1281L1443,1189L1305,1178Z" fill="#151515" stroke="#151515" stroke-width="1.51"/><path d="M1318,313L1311,122L1055,84Z" fill="#828282" stroke="#828282" stroke-width="1.51"/><path d="M1535,518L1478,305L1314,510Z" fill="#4a4a4a" stroke="#4a4a4a" stroke-width="1.51"/><path d="M867,87L603,115L793,293Z" fill="#b9b9b9" stroke="#b9b9b9" stroke-width="1.51"/><path d="M409,170L396,281L552,382Z" fill="#cbcbcb" stroke="#cbcbcb" stroke-width="1.51"/><path d="M1478,305L1311,122L1318,313Z" fill="#6b6b6b" stroke="#6b6b6b" stroke-width="1.51"/><path d="M362,548L224,613L387,807Z" fill="#989898" stroke="#989898" stroke-width="1.51"/><path d="M188,294L224,613L362,548Z" fill="#b7b7b7" stroke="#b7b7b7" stroke-width="1.51"/><path d="M649,1281L434,1285L1075,1281Z" fill="#494949" stroke="#494949" stroke-width="1.51"/><path d="M363,948L434,1285L647,988Z" fill="#5e5e5e" stroke="#5e5e5e" stroke-width="1.51"/><path d="M200,1023L434,1285L363,948Z" fill="#686868" stroke="#686868" stroke-width="1.51"/><path d="M1535,518L1711,364L1478,305Z" fill="#515151" stroke="#515151" stroke-width="1.51"/><path d="M1742,802L1672,565L1448,765Z" fill="#242424" stroke="#242424" stroke-width="1.51"/><path d="M396,281L188,294L362,548Z" fill="#c7c7c7" stroke="#c7c7c7" stroke-width="1.51"/><path d="M603,115L409,170L552,382Z" fill="#cdcdcd" stroke="#cdcdcd" stroke-width="1.51"/><path d="M115,748L363,948L387,807Z" fill="#757575" stroke="#757575" stroke-width="1.51"/><path d="M867,87L778,-53L603,115Z" fill="#c3c3c3" stroke="#c3c3c3" stroke-width="1.51"/><path d="M603,115L388,-78L409,170Z" fill="#dfdfdf" stroke="#dfdfdf" stroke-width="1.51"/><path d="M1094,-111L778,-53L867,87Z" fill="#b5b5b5" stroke="#b5b5b5" stroke-width="1.51"/><path d="M1094,-111L867,87L1055,84Z" fill="#aaaaaa" stroke="#aaaaaa" stroke-width="1.51"/><path d="M1542,1006L1704,954L1448,765Z" fill="#000000" stroke="#000000" stroke-width="1.51"/><path d="M1688,1176L1704,954L1542,1006Z" fill="#000000" stroke="#000000" stroke-width="1.51"/><path d="M1704,954L1742,802L1448,765Z" fill="#0e0e0e" stroke="#0e0e0e" stroke-width="1.51"/><path d="M-42,570L115,748L224,613Z" fill="#a6a6a6" stroke="#a6a6a6" stroke-width="1.51"/><path d="M224,613L115,748L387,807Z" fill="#8e8e8e" stroke="#8e8e8e" stroke-width="1.51"/><path d="M778,-53L665,-80L603,115Z" fill="#cdcdcd" stroke="#cdcdcd" stroke-width="1.51"/><path d="M781,-326L647,-293L665,-80Z" fill="#cccccc" stroke="#cccccc" stroke-width="1.51"/><path d="M1228,-139L1094,-111L1055,84Z" fill="#9d9d9d" stroke="#9d9d9d" stroke-width="1.51"/><path d="M1672,565L1711,364L1535,518Z" fill="#454545" stroke="#454545" stroke-width="1.51"/><path d="M1478,305L1530,75L1311,122Z" fill="#6c6c6c" stroke="#6c6c6c" stroke-width="1.51"/><path d="M1311,122L1228,-139L1055,84Z" fill="#919191" stroke="#919191" stroke-width="1.51"/><path d="M1908,386L1711,364L1672,565Z" fill="#4b4b4b" stroke="#4b4b4b" stroke-width="1.51"/><path d="M193,156L396,281L409,170Z" fill="#dddddd" stroke="#dddddd" stroke-width="1.51"/><path d="M193,156L188,294L396,281Z" fill="#dddddd" stroke="#dddddd" stroke-width="1.51"/><path d="M1075,1281L1688,1176L1443,1189Z" fill="#060606" stroke="#060606" stroke-width="1.51"/><path d="M1443,1189L1688,1176L1542,1006Z" fill="#000000" stroke="#000000" stroke-width="1.51"/><path d="M1704,954L1900,807L1742,802Z" fill="#0b0b0b" stroke="#0b0b0b" stroke-width="1.51"/><path d="M1706,128L1530,75L1478,305Z" fill="#6b6b6b" stroke="#6b6b6b" stroke-width="1.51"/><path d="M1533,-97L1228,-139L1311,122Z" fill="#7f7f7f" stroke="#7f7f7f" stroke-width="1.51"/><path d="M1094,-111L1033,-318L778,-53Z" fill="#afafaf" stroke="#afafaf" stroke-width="1.51"/><path d="M388,-78L193,156L409,170Z" fill="#e8e8e8" stroke="#e8e8e8" stroke-width="1.51"/><path d="M-39,369L-42,570L224,613Z" fill="#bcbcbc" stroke="#bcbcbc" stroke-width="1.51"/><path d="M1988,1011L1900,807L1704,954Z" fill="#000000" stroke="#000000" stroke-width="1.51"/><path d="M1742,802L1900,807L1672,565Z" fill="#212121" stroke="#212121" stroke-width="1.51"/><path d="M665,-80L388,-78L603,115Z" fill="#dcdcdc" stroke="#dcdcdc" stroke-width="1.51"/><path d="M647,-293L388,-78L665,-80Z" fill="#dadada" stroke="#dadada" stroke-width="1.51"/><path d="M1913,143L1706,128L1711,364Z" fill="#686868" stroke="#686868" stroke-width="1.51"/><path d="M1711,364L1706,128L1478,305Z" fill="#626262" stroke="#626262" stroke-width="1.51"/><path d="M1530,75L1533,-97L1311,122Z" fill="#757575" stroke="#757575" stroke-width="1.51"/><path d="M-41,1018L106,1263L200,1023Z" fill="#747474" stroke="#747474" stroke-width="1.51"/><path d="M200,1023L106,1263L434,1285Z" fill="#6c6c6c" stroke="#6c6c6c" stroke-width="1.51"/><path d="M-39,369L224,613L188,294Z" fill="#c9c9c9" stroke="#c9c9c9" stroke-width="1.51"/><path d="M115,748L-41,1018L200,1023Z" fill="#737373" stroke="#737373" stroke-width="1.51"/><path d="M-95,758L-41,1018L115,748Z" fill="#818181" stroke="#818181" stroke-width="1.51"/><path d="M1674,-81L1533,-97L1530,75Z" fill="#777777" stroke="#777777" stroke-width="1.51"/><path d="M-42,570L-95,758L115,748Z" fill="#a0a0a0" stroke="#a0a0a0" stroke-width="1.51"/><path d="M1988,511L1908,386L1672,565Z" fill="#444444" stroke="#444444" stroke-width="1.51"/><path d="M1706,128L1674,-81L1530,75Z" fill="#757575" stroke="#757575" stroke-width="1.51"/><path d="M-42,570L-237,617L-95,758Z" fill="#a9a9a9" stroke="#a9a9a9" stroke-width="1.51"/><path d="M-2,166L-39,369L188,294Z" fill="#e3e3e3" stroke="#e3e3e3" stroke-width="1.51"/><path d="M-2,166L188,294L193,156Z" fill="#e8e8e8" stroke="#e8e8e8" stroke-width="1.51"/><path d="M1268,-359L1033,-318L1228,-139Z" fill="#969696" stroke="#969696" stroke-width="1.51"/><path d="M1228,-139L1033,-318L1094,-111Z" fill="#9e9e9e" stroke="#9e9e9e" stroke-width="1.51"/><path d="M781,-326L665,-80L778,-53Z" fill="#c7c7c7" stroke="#c7c7c7" stroke-width="1.51"/><path d="M1033,-318L781,-326L778,-53Z" fill="#bababa" stroke="#bababa" stroke-width="1.51"/><path d="M1900,807L1988,511L1672,565Z" fill="#313131" stroke="#313131" stroke-width="1.51"/><path d="M1900,807L1988,1011L1988,511Z" fill="#181818" stroke="#181818" stroke-width="1.51"/><path d="M1688,1176L1988,1011L1704,954Z" fill="#000000" stroke="#000000" stroke-width="1.51"/><path d="M126,-143L193,156L388,-78Z" fill="#f4f4f4" stroke="#f4f4f4" stroke-width="1.51"/><path d="M126,-143L-2,166L193,156Z" fill="#f6f6f6" stroke="#f6f6f6" stroke-width="1.51"/><path d="M1497,-318L1268,-359L1228,-139Z" fill="#828282" stroke="#828282" stroke-width="1.51"/><path d="M1912,-85L1674,-81L1706,128Z" fill="#777777" stroke="#777777" stroke-width="1.51"/><path d="M1913,143L1711,364L1908,386Z" fill="#5f5f5f" stroke="#5f5f5f" stroke-width="1.51"/><path d="M-265,1217L-61,1242L-41,1018Z" fill="#777777" stroke="#777777" stroke-width="1.51"/><path d="M-41,1018L-61,1242L106,1263Z" fill="#777777" stroke="#777777" stroke-width="1.51"/><path d="M1497,-318L1228,-139L1533,-97Z" fill="#797979" stroke="#797979" stroke-width="1.51"/><path d="M1033,-318L1268,-359L781,-326Z" fill="#a9a9a9" stroke="#a9a9a9" stroke-width="1.51"/><path d="M1688,1176L1979,1180L1988,1011Z" fill="#000000" stroke="#000000" stroke-width="1.51"/><path d="M1075,1281L1979,1180L1688,1176Z" fill="#000000" stroke="#000000" stroke-width="1.51"/><path d="M1988,511L1913,143L1908,386Z" fill="#595959" stroke="#595959" stroke-width="1.51"/><path d="M-250,347L-42,570L-39,369Z" fill="#cdcdcd" stroke="#cdcdcd" stroke-width="1.51"/><path d="M-250,347L-237,617L-42,570Z" fill="#bfbfbf" stroke="#bfbfbf" stroke-width="1.51"/><path d="M-95,758L-284,968L-41,1018Z" fill="#777777" stroke="#777777" stroke-width="1.51"/><path d="M1674,-81L1497,-318L1533,-97Z" fill="#777777" stroke="#777777" stroke-width="1.51"/><path d="M1760,-307L1497,-318L1674,-81Z" fill="#777777" stroke="#777777" stroke-width="1.51"/><path d="M341,-365L126,-143L388,-78Z" fill="#f1f1f1" stroke="#f1f1f1" stroke-width="1.51"/><path d="M-2,166L-250,347L-39,369Z" fill="#e3e3e3" stroke="#e3e3e3" stroke-width="1.51"/><path d="M-324,749L-284,968L-95,758Z" fill="#838383" stroke="#838383" stroke-width="1.51"/><path d="M647,-293L341,-365L388,-78Z" fill="#e4e4e4" stroke="#e4e4e4" stroke-width="1.51"/><path d="M781,-326L341,-365L647,-293Z" fill="#d8d8d8" stroke="#d8d8d8" stroke-width="1.51"/><path d="M1268,-359L341,-365L781,-326Z" fill="#c1c1c1" stroke="#c1c1c1" stroke-width="1.51"/><path d="M-237,617L-324,749L-95,758Z" fill="#9c9c9c" stroke="#9c9c9c" stroke-width="1.51"/><path d="M-250,78L-250,347L-2,166Z" fill="#efefef" stroke="#efefef" stroke-width="1.51"/><path d="M-250,347L-324,749L-237,617Z" fill="#b5b5b5" stroke="#b5b5b5" stroke-width="1.51"/><path d="M1981,-296L1912,-85L1913,143Z" fill="#777777" stroke="#777777" stroke-width="1.51"/><path d="M1913,143L1912,-85L1706,128Z" fill="#737373" stroke="#737373" stroke-width="1.51"/><path d="M-324,749L-265,1217L-284,968Z" fill="#777777" stroke="#777777" stroke-width="1.51"/><path d="M-284,968L-265,1217L-41,1018Z" fill="#777777" stroke="#777777" stroke-width="1.51"/><path d="M-61,1242L-265,1217L106,1263Z" fill="#777777" stroke="#777777" stroke-width="1.51"/><path d="M-103,-145L-250,78L-2,166Z" fill="#fdfdfd" stroke="#fdfdfd" stroke-width="1.51"/><path d="M341,-365L124,-307L126,-143Z" fill="#f6f6f6" stroke="#f6f6f6" stroke-width="1.51"/><path d="M1912,-85L1760,-307L1674,-81Z" fill="#777777" stroke="#777777" stroke-width="1.51"/><path d="M1497,-318L1760,-307L1268,-359Z" fill="#777777" stroke="#777777" stroke-width="1.51"/><path d="M-250,347L-320,-139L-324,749Z" fill="#e0e0e0" stroke="#e0e0e0" stroke-width="1.51"/><path d="M-103,-145L-2,166L126,-143Z" fill="#fefefe" stroke="#fefefe" stroke-width="1.51"/><path d="M-85,-290L-103,-145L126,-143Z" fill="#ffffff" stroke="#ffffff" stroke-width="1.51"/><path d="M124,-307L-85,-290L126,-143Z" fill="#fcfcfc" stroke="#fcfcfc" stroke-width="1.51"/><path d="M-103,-145L-320,-139L-250,78Z" fill="#ffffff" stroke="#ffffff" stroke-width="1.51"/><path d="M341,-365L-85,-290L124,-307Z" fill="#f9f9f9" stroke="#f9f9f9" stroke-width="1.51"/><path d="M1912,-85L1981,-296L1760,-307Z" fill="#777777" stroke="#777777" stroke-width="1.51"/><path d="M1760,-307L1981,-296L1268,-359Z" fill="#777777" stroke="#777777" stroke-width="1.51"/><path d="M1988,511L1981,-296L1913,143Z" fill="#707070" stroke="#707070" stroke-width="1.51"/><path d="M-328,-278L-320,-139L-103,-145Z" fill="#ffffff" stroke="#ffffff" stroke-width="1.51"/><path d="M-250,78L-320,-139L-250,347Z" fill="#f8f8f8" stroke="#f8f8f8" stroke-width="1.51"/><path d="M-85,-290L-328,-278L-103,-145Z" fill="#ffffff" stroke="#ffffff" stroke-width="1.51"/><path d="M-320,-139L-328,-278L-324,749Z" fill="#f7f7f7" stroke="#f7f7f7" stroke-width="1.51"/><path d="M341,-365L-328,-278L-85,-290Z" fill="#ffffff" stroke="#ffffff" stroke-width="1.51"/></svg>