<svg id="Layer_1" data-name="Layer 1" xmlns="http://www.w3.org/2000/svg" viewBox="0 0 148 129"><defs><style>.cls-1{fill:#fff;}.cls-2{fill:none;stroke:#fff;stroke-miterlimit:10;stroke-width:10px;}</style></defs><title>code-icon-wht</title><path class="cls-1" d="M32.85,79.2l22.9,10.65A4.47,4.47,0,0,0,60,89.56a4.42,4.42,0,0,0,2-3.75v-.12a4.46,4.46,0,0,0-2.57-4L45.18,75,59.5,68.35a4.47,4.47,0,0,0,2.57-4V64.2a4.43,4.43,0,0,0-2-3.76,4.5,4.5,0,0,0-4.27-.28L32.85,70.81a4.47,4.47,0,0,0-2.57,4v.32A4.48,4.48,0,0,0,32.85,79.2Z"/><path class="cls-1" d="M64.94,100.89a4.48,4.48,0,0,0,3.6,1.82h.11a4.43,4.43,0,0,0,4.24-3.09L88,52.88a4.45,4.45,0,0,0-4.23-5.81h-.12a4.46,4.46,0,0,0-4.24,3.09L64.3,96.91A4.49,4.49,0,0,0,64.94,100.89Z"/><path class="cls-1" d="M90.2,64.31a4.47,4.47,0,0,0,2.58,4L107.1,75,92.78,81.66a4.45,4.45,0,0,0-2.58,4v.12a4.44,4.44,0,0,0,6.33,4l22.9-10.64a4.48,4.48,0,0,0,2.57-4v-.32a4.45,4.45,0,0,0-2.58-4L96.53,60.16a4.45,4.45,0,0,0-6.33,4v.11Z"/><rect class="cls-2" x="8" y="7.58" width="133" height="113.83" rx="12" ry="12"/><circle class="cls-1" cx="98.73" cy="25.88" r="4.38"/><circle class="cls-1" cx="110.48" cy="25.88" r="4.38"/><circle class="cls-1" cx="122.23" cy="25.88" r="4.38"/></svg>