<?xml version="1.0" encoding="utf-8"?>
<!-- Generator: Adobe Illustrator 22.1.0, SVG Export Plug-In . SVG Version: 6.00 Build 0)  -->
<svg version="1.1" id="Layer_1" xmlns="http://www.w3.org/2000/svg" xmlns:xlink="http://www.w3.org/1999/xlink" x="0px" y="0px"
	 viewBox="0 0 457.4 457.1" style="enable-background:new 0 0 457.4 457.1;" xml:space="preserve">
<style type="text/css">
	.st0{display:none;fill:#3F3F3F;}
	.st1{fill:#001427;}
	.st2{fill:#FFFFFF;}
	.st3{font-family:'MrEavesXLModOT-Thin';}
	.st4{font-size:59.5873px;}
</style>
<rect x="-276.2" y="-293" class="st0" width="1048.6" height="1050"/>
<title>Artboard 4</title>
<g>
	<g id="concept_3">
		<rect x="131.5" y="130.9" class="st1" width="195.6" height="197.6"/>
		<path class="st2" d="M387.8,135.6v178.8c0,16.5-13.4,29.8-29.8,29.8H99.5c-16.5,0-29.8-13.4-29.9-29.8V135.6
			c0-16.5,13.4-29.8,29.9-29.8h54.7l7.7-20.5c4.4-11.5,15.3-19.2,27.8-19.4h77.9c12.5,0,23.6,7.7,27.8,19.4l7.7,20.5h54.7
			C374.2,105.9,387.6,119.2,387.8,135.6L387.8,135.6z M303.5,225.2c0-41.3-33.4-74.6-74.6-74.6s-74.6,33.4-74.6,74.6
			s33.4,74.6,74.6,74.6C269.9,299.7,303.2,266.3,303.5,225.2L303.5,225.2z M283.5,225.2c0,30.1-24.4,54.7-54.7,54.7
			s-54.7-24.4-54.7-54.7c0-30.1,24.4-54.7,54.7-54.7l0,0C258.9,170.5,283.3,194.9,283.5,225.2L283.5,225.2z"/>
		<polygon class="st1" points="258.3,247.5 220.9,280.1 207.9,247.5 219.2,247.5 230.9,219.1 193.5,219.1 214.6,155.8 241.1,155.8 
			226.5,199.7 265,199.7 244.1,247.5 		"/>
	</g>
	<text transform="matrix(1 0 0 1 71.736 390.0166)" class="st2 st3 st4">Mirrorless Shot</text>
</g>
</svg>
