<?xml version="1.0" encoding="utf-8"?>
<!-- Generator: Adobe Illustrator 22.1.0, SVG Export Plug-In . SVG Version: 6.00 Build 0)  -->
<svg version="1.1" id="Layer_1" xmlns="http://www.w3.org/2000/svg" xmlns:xlink="http://www.w3.org/1999/xlink" x="0px" y="0px"
	 viewBox="0 0 1047.7 1092.8" style="enable-background:new 0 0 1047.7 1092.8;" xml:space="preserve">
<style type="text/css">
	.st0{fill:#333333;}
	.st1{fill:none;}
	.st2{fill:url(#_Path_10_1_);}
	.st3{fill:url(#SVGID_1_);}
	.st4{fill:url(#_Path_11_1_);}
	.st5{fill:url(#SVGID_2_);}
	.st6{fill:url(#_Path_12_1_);}
	.st7{fill:url(#_Path_13_1_);}
	.st8{fill:url(#_Path_14_1_);}
	.st9{fill:url(#_Path_15_1_);}
	.st10{fill:url(#_Path_16_1_);}
	.st11{fill:url(#_Path_17_1_);}
	.st12{fill:#0089CF;}
</style>
<title>Artboard 4</title>
<g>
	<g id="Layer_1_1_">
		<g id="Shape_1">
			
				<image style="overflow:visible;opacity:0.2;enable-background:new    ;" width="3577" height="4030" xlink:href="E850012BA8F7F05F.png"  transform="matrix(0.2399 0 0 0.2399 51.2416 47.5475)">
			</image>
			<path class="st0" d="M761.1,524.4c53.7-8.3,87.5-79.2,75.6-158.3s-65-136.5-118.6-128.1s-87.5,79.2-75.6,158.3
				S707.5,532.7,761.1,524.4z M519,396c52.9-15.2,76.3-96.9,52.3-182.4S485,71.2,432.2,86.4s-76.2,96.9-52.3,182.4
				S466.2,411.2,519,396z M483.4,522c-112.5,63.7-125.8,417.8-33.3,439.5S617.8,869.6,669,824.2s161.6,5.1,189.2-132
				C876.1,603.3,591,461.2,483.4,522L483.4,522z M151.3,244.4c-41.6,36.4-28.6,120.3,29.1,187.4s138,92.1,179.6,55.7
				s28.6-120.2-29.1-187.4S192.8,208,151.3,244.4z M275.2,566.3c-63.7-47.5-141.5-50.2-173.8-6.2c-32.3,44.1-6.8,118.3,56.9,165.8
				s141.5,50.2,173.8,6.2S338.9,613.8,275.2,566.3z"/>
		</g>
		<g id="_Group_">
			<path id="_Path_" class="st1" d="M236.6,511.7c1.9,0,4.2-1,6.8-3.1v-24c-4,0.4-6.9,1.5-8.9,3.1c-4.1,3.3-6.1,7.9-6.1,14
				c0,3.6,1,6.4,2.9,8.1C232.8,511,234.6,511.7,236.6,511.7z"/>
			<path id="_Path_2" class="st1" d="M938.5,475.3c1-1.9,1.4-4,1.3-6.1c0-4.3-1-7.5-3-9.4c-1-1-2.4-1.6-3.9-1.6
				c-2.1,0-4.2,0.8-5.8,2.2c-2.4,2-3.8,6-4.4,12.1c-0.1,1.2-0.2,4.6-0.3,9.7l11.8-4C936.4,477.2,937.9,476.4,938.5,475.3z"/>
			<path id="_Path_3" class="st1" d="M394.6,241.5c-21.8,16.2-26.5,46.9-10.6,68.9c15.6,21.8,45.9,26.8,67.6,11.2
				c0.2-0.2,0.4-0.3,0.6-0.5c21.8-16.2,26.6-46.9,10.6-68.9c-15.5-21.8-45.8-26.8-67.6-11.3C395.1,241.2,394.8,241.3,394.6,241.5z"
				/>
			<path id="_Path_4" class="st1" d="M804.2,677.6c-7.2,3.3-12.6,6.9-16.3,10.9s-5.7,7.8-5.7,11.7s1.6,5.8,4.9,5.8
				C793.3,706.1,799.1,696.5,804.2,677.6z"/>
			<path id="_Path_5" class="st1" d="M682,609.7c0-5.6-2.1-8.3-6.1-8.3c-3.7,0-7.4,2.8-10.8,8.7s-5.1,13.4-5.1,22.8
				C674.7,628.6,682,620.9,682,609.7z"/>
			<path id="_Path_6" class="st1" d="M694.2,456.7c2.2-3.1,3.4-6.9,3.3-10.8c0.1-3.9-1.1-7.7-3.5-10.7c-2.8-3.4-8-5-15.8-5h-3v32.5
				c5-0.1,8.5-0.2,10.5-0.7C689.5,461.1,692.3,459.4,694.2,456.7z"/>
			<path id="_Path_7" class="st1" d="M654.3,218.7c-27,0-48.8,22.1-48.8,49.4s21.8,49.3,48.8,49.3s48.8-22.1,48.8-49.3
				S681.3,218.7,654.3,218.7z"/>
			<path id="_Path_8" class="st1" d="M162.1,456.7c2.2-3.1,3.4-6.9,3.3-10.8c0.1-3.9-1.1-7.7-3.5-10.7c-2.9-3.4-8.1-5-15.8-5h-3.1
				v32.5c5.1-0.1,8.6-0.2,10.5-0.7C157.5,461.1,160.3,459.4,162.1,456.7z"/>
			<path id="_Path_9" class="st1" d="M768.4,511.4c1.1,1.2,2.6,2,4.3,2c3.1,0,5.8-2.4,7.9-7.3c1.6-3.7,2.4-10.3,2.4-19.2
				c0-11.1-1.3-19-4.2-23.8c-1.9-3.1-4-4.6-6.6-4.6c-6.4,0-9.5,8.5-9.5,25.8c0,8.5,0.5,15,1.8,19.6
				C765,506.7,766.3,509.3,768.4,511.4z"/>
			
				<linearGradient id="_Path_10_1_" gradientUnits="userSpaceOnUse" x1="571.1256" y1="510.7536" x2="603.6477" y2="567.0898" gradientTransform="matrix(1 0 0 -1 0 1093.8447)">
				<stop  offset="0" style="stop-color:#C4C7CE"/>
				<stop  offset="0.51" style="stop-color:#F5F6F6"/>
				<stop  offset="1" style="stop-color:#C4C7CE"/>
			</linearGradient>
			<path id="_Path_10" class="st2" d="M593.2,595c0.4-0.3,0.9-0.5,1.5-0.6l6.4-0.3l4.4-15.1v-51.2h-38.8v31.5l4,5.6l13.4-2.8
				c0.2,0,0.3,0,0.5-0.1c0.7,0,1.3,0.3,1.7,0.8c0.5,0.4,0.7,1,0.7,1.7c0,0.2,0,0.5-0.1,0.7l-4.6,15.7l10.5,14.6
				C592.9,595.3,593,595.2,593.2,595z"/>
			<g id="_Group_2">
				
					<image style="overflow:visible;opacity:0.3;enable-background:new    ;" width="1325" height="1600" xlink:href="E850012BA8F7F05D.png"  transform="matrix(0.2398 0 0 0.2398 233.1616 163.2373)">
				</image>
				
					<linearGradient id="SVGID_1_" gradientUnits="userSpaceOnUse" x1="307.8283" y1="668.968" x2="544.2283" y2="808.478" gradientTransform="matrix(1 0 0 -1 0 1093.8447)">
					<stop  offset="0" style="stop-color:#C4C7CE"/>
					<stop  offset="0.59" style="stop-color:#F5F6F6"/>
				</linearGradient>
				<path class="st3" d="M501.2,222.5c-27.1-37.6-73.7-52.4-115.1-40.4c-24.6,7.1-50.8,36.7-58.8,69.9c-20.1-9.1-48.2-12.1-68,5.7
					c-4,3.6-7.6,7.6-10.7,12c-2.3,3.2-0.3,9.4,4.2,6.9c14.8-8.5,32.5-9.9,48.4-3.8c10.2,3.9,20.9,17.1,28.5,27.9
					c0.4,0.9,0.9,1.7,1.5,2.5l1.9,2.7c0.4,0.7,0.7,1.2,1.1,1.8v-0.1c1.1,2,2.4,3.9,3.8,5.7l95.5,132.1c5.3,0.3,10.6,1,15.9,2
					l0.6,20.2l-0.9-0.6l36.9,51.1v-66.6l-44.4-61.4c13.5-3.8,26.3-10,37.6-18.3C526,337.5,535.9,270.5,501.2,222.5z M452.2,321.2
					c-21.5,15.9-51.9,11.4-67.8-10.1c-0.2-0.2-0.3-0.4-0.5-0.6c-15.9-22-11.2-52.7,10.6-68.9c21.5-15.9,51.8-11.4,67.8,10.1
					c0.2,0.2,0.3,0.5,0.5,0.7C478.8,274.3,474,305,452.2,321.2L452.2,321.2z"/>
			</g>
			
				<linearGradient id="_Path_11_1_" gradientUnits="userSpaceOnUse" x1="566.6916" y1="451.3224" x2="577.2116" y2="451.3224" gradientTransform="matrix(1 0 0 -1 0 1093.8447)">
				<stop  offset="0" style="stop-color:#C4C7CE"/>
				<stop  offset="1" style="stop-color:#C4C7CE"/>
			</linearGradient>
			<path id="_Path_11" class="st4" d="M566.7,649.3c0.9,1,2.1,1.6,3.4,1.6c2.5-0.1,5-0.8,7.1-2.1l-10.5-14.6L566.7,649.3z"/>
			<g id="_Group_3">
				
					<image style="overflow:visible;opacity:0.2;enable-background:new    ;" width="952" height="1182" xlink:href="E850012BA8F7F063.png"  transform="matrix(0.2397 0 0 0.2397 552.1216 147.1613)">
				</image>
				
					<linearGradient id="SVGID_2_" gradientUnits="userSpaceOnUse" x1="483.1416" y1="812.0131" x2="667.9816" y2="812.0131" gradientTransform="matrix(1 0 0 -1 0 1093.8447)">
					<stop  offset="0" style="stop-color:#C4C7CE"/>
					<stop  offset="0.91" style="stop-color:#F5F6F6"/>
				</linearGradient>
				<path class="st5" d="M682.2,165.8c-41.7-15.4-115.5,16.7-115.5,33.6v202.5h38.8V367c13.1,5,27,7.6,41,7.6
					c58,0,105-48.2,105-107.6C751.6,220.4,722.6,180.8,682.2,165.8z M654.3,317.4c-27,0-48.8-22.1-48.8-49.3s21.8-49.4,48.8-49.4
					s48.8,22.1,48.8,49.4S681.3,317.4,654.3,317.4z"/>
			</g>
			
				<linearGradient id="_Path_12_1_" gradientUnits="userSpaceOnUse" x1="514.1132" y1="575.5333" x2="558.9932" y2="497.7933" gradientTransform="matrix(1 0 0 -1 0 1093.8447)">
				<stop  offset="0" style="stop-color:#C4C7CE"/>
				<stop  offset="0.51" style="stop-color:#F5F6F6"/>
				<stop  offset="1" style="stop-color:#C4C7CE"/>
			</linearGradient>
			<path id="_Path_12" class="st6" d="M542.9,596.3c0.1-0.5,0.3-1,0.7-1.4c0.4-0.3,0.9-0.5,1.5-0.5l6.6-0.3l7.6-25.5
				c0.1-0.4,0.3-0.8,0.7-1.1c0.3-0.3,0.7-0.5,1.1-0.6l7.2-1.4l-29.1-40.2v-0.1l-9.4-13v12.6c0,0.6-0.2,1.3-0.7,1.7
				c-0.4,0.5-1.1,0.7-1.7,0.7h-34.9l50.5,69.7L542.9,596.3z"/>
			
				<linearGradient id="_Path_13_1_" gradientUnits="userSpaceOnUse" x1="621.2772" y1="408.1687" x2="722.7172" y2="289.0287" gradientTransform="matrix(1 0 0 -1 0 1093.8447)">
				<stop  offset="0" style="stop-color:#C4C7CE"/>
				<stop  offset="0.51" style="stop-color:#F5F6F6"/>
			</linearGradient>
			<path id="_Path_13" class="st7" d="M737.9,800.1L635,657.8c-3.6,3.3-7.5,6.3-11.5,9.1c-5.7,3.6-11.1,5.5-16.4,5.5
				c-5.5,0.2-10.8-2.5-13.8-7.2c-2.3-3.1-3.8-6.6-4.4-10.4c-0.9,0.7-1.7,1.6-2.5,2.3l151.2,209L737.9,800.1z"/>
			
				<linearGradient id="_Path_14_1_" gradientUnits="userSpaceOnUse" x1="614.6116" y1="452.2724" x2="627.8616" y2="452.2724" gradientTransform="matrix(1 0 0 -1 0 1093.8447)">
				<stop  offset="0" style="stop-color:#C4C7CE"/>
				<stop  offset="1" style="stop-color:#C4C7CE"/>
			</linearGradient>
			<path id="_Path_14" class="st8" d="M614.6,644.2c-0.1,1.8,0.4,3.5,1.4,5c0.9,1.1,2.2,1.7,3.5,1.7c2.6-0.1,5.2-1,7.4-2.4
				c0.3-0.1,0.7-0.4,0.9-0.6l-11.3-15.6C615.4,636.1,614.8,640.1,614.6,644.2z"/>
			
				<linearGradient id="_Path_15_1_" gradientUnits="userSpaceOnUse" x1="578.9016" y1="505.7974" x2="587.2416" y2="505.7974" gradientTransform="matrix(1 0 0 -1 0 1093.8447)">
				<stop  offset="0" style="stop-color:#C4C7CE"/>
				<stop  offset="1" style="stop-color:#C4C7CE"/>
			</linearGradient>
			<polygon id="_Path_15" class="st9" points="578.9,592.3 587.2,591.9 581.4,583.8 			"/>
			
				<linearGradient id="_Path_16_1_" gradientUnits="userSpaceOnUse" x1="637.5844" y1="404.3414" x2="544.3456" y2="242.8535" gradientTransform="matrix(1 0 0 -1 0 1093.8447)">
				<stop  offset="0" style="stop-color:#C4C7CE"/>
				<stop  offset="0.51" style="stop-color:#F5F6F6"/>
			</linearGradient>
			<path id="_Path_16" class="st10" d="M574,666.9c-2.3,1.5-4.8,2.7-7.3,3.7l0.2,181.1l38.8,34.8l-0.3-198.3l-21.1-29.3
				C581.1,661.7,577.6,664.4,574,666.9z"/>
			
				<linearGradient id="_Path_17_1_" gradientUnits="userSpaceOnUse" x1="567.5016" y1="472.4023" x2="595.4216" y2="472.4023" gradientTransform="matrix(1 0 0 -1 0 1093.8447)">
				<stop  offset="0" style="stop-color:#C4C7CE"/>
				<stop  offset="1" style="stop-color:#C4C7CE"/>
			</linearGradient>
			<path id="_Path_17" class="st11" d="M592.1,598.5l-2.1-2.9l-2.7,12.5c-0.1,0.5-0.4,1-0.8,1.3c-0.4,0.3-0.8,0.5-1.3,0.6l-11.6,1
				l-5.4,17.8c-0.2,0.7-0.4,1.5-0.6,2.2l11.8,16.3c3.5-2.9,6.7-6,9.8-9.4c0.5-2.8,1.1-5.8,1.8-9.2c-1.3,1.2-3,1.8-4.8,1.8
				c-4,0-7.3-3.2-7.3-7.2c0-4,3.2-7.3,7.2-7.3c3.2,0,6,2,6.9,5l2.4-8.3l-3.2,0.1h-0.1c-0.6,0-1.3-0.2-1.7-0.7
				c-0.5-0.5-0.7-1.1-0.7-1.7c0-0.2,0-0.3,0.1-0.5L592.1,598.5z"/>
			<polygon id="_Path_18" class="st12" points="488.4,404.3 488.4,450.9 527.3,504.8 527.3,469.8 564.3,521.1 564.3,454.5 
				528.1,404.3 			"/>
			<polygon id="_Path_19" class="st12" points="527.3,524.8 527.3,508.8 488.4,455 488.4,521.8 490.6,524.8 			"/>
			<rect id="_Path_20" x="566.7" y="404.3" class="st12" width="38.8" height="120.5"/>
			<g id="_Group_4">
				
					<image style="overflow:visible;opacity:0.2;enable-background:new    ;" width="459" height="468" xlink:href="E850012BA8F7F065.png"  transform="matrix(0.2395 0 0 0.2395 724.6316 436.6847)">
				</image>
				<path class="st12" d="M751.1,521c6.3,3.7,13.6,5.7,20.9,5.7c10.1,0.2,19.9-3.5,27.4-10.3c8.7-8,13.1-17.9,13.1-30
					c-0.1-3.8-0.5-7.6-1.3-11.3c-2-8.5-5.8-15.2-11.5-20.5c-7.2-6.5-16.2-9.7-26.8-9.7c-5.5-0.1-10.9,0.9-16,2.9
					c-7.7,3.1-13.4,7.7-17.3,13.9c-4.5,7.4-6.8,15.8-6.7,24.4c-0.1,7.7,1.8,15.3,5.6,22C741.4,513.5,745.8,518,751.1,521z
					 M772.2,458.5c2.7,0,4.7,1.5,6.6,4.6c2.8,4.8,4.2,12.7,4.2,23.8c0,8.9-0.8,15.5-2.4,19.2c-2.1,4.9-4.7,7.3-7.9,7.3
					c-1.7,0-3.2-0.8-4.3-2c-2.1-2-3.4-4.6-3.9-7.5c-1.2-4.6-1.8-11.1-1.8-19.6C762.7,467,765.9,458.5,772.2,458.5L772.2,458.5z"/>
			</g>
			<g id="_Group_5">
				
					<image style="overflow:visible;opacity:0.2;enable-background:new    ;" width="510" height="587" xlink:href="E850012BA8F7F067.png"  transform="matrix(0.2395 0 0 0.2395 97.5116 405.9805)">
				</image>
				<path class="st12" d="M147.2,478.5c6.2,0.1,12.3-0.2,18.5-0.9c9.5-1.3,16.8-4.2,22.1-8.8c11.1-10.3,13-27.1,4.4-39.5
					c-4.1-5.5-10.1-9.6-18-12.1c-5.9-2-14.1-2.9-24.8-2.9h-43.7c1.9,3.3,3.7,6.7,5.2,10.3c0.7,0.6,1,5.1,1,13v58.5
					c0,5-0.4,14.6-0.9,28.6H149c-1.7-2.6-3.2-5.4-4.4-8.3c-1-2.8-1.4-8.1-1.6-16.4v-21.3H147.2z M143.1,430.1h3.1
					c7.6,0,12.9,1.6,15.8,5c2.4,3.1,3.6,6.9,3.5,10.8c0.1,3.9-1.1,7.7-3.3,10.8c-1.8,2.8-4.7,4.4-8.5,5.2c-2,0.5-5.5,0.6-10.5,0.7
					L143.1,430.1z"/>
			</g>
			<g id="_Group_6">
				
					<image style="overflow:visible;opacity:0.2;enable-background:new    ;" width="585" height="451" xlink:href="E850012BA8F7F064.png"  transform="matrix(0.2395 0 0 0.2395 269.1472 439.0824)">
				</image>
				<path class="st12" d="M358.3,488.8l-12-41.5h-20.3l-9.4,40.4l-6.7-27.4c-0.4-2.1-1.1-6.5-1.6-13.1h-31.1
					c2.3,2.8,3.5,4.3,3.4,4.5c1.5,2.4,3,6.4,4.6,12l17.3,61.2h20.1c1.2-5.1,2.2-9.2,3-11.9l7.1-25.8l7.9,24.2
					c0.5,1.8,1.7,6.4,3.7,13.5h20.7l16.3-58.8l3.3-11.7c0.7-2.4,1.6-4.8,2.7-7.1h-22.2c0.9,2.3,1.4,4.6,1.6,7.1
					c-0.2,3.6-0.9,7.1-2,10.5L358.3,488.8z"/>
			</g>
			<g id="_Group_7">
				
					<image style="overflow:visible;opacity:0.2;enable-background:new    ;" width="431" height="466" xlink:href="E850012BA8F7F06C.png"  transform="matrix(0.2394 0 0 0.2394 193.2716 436.2121)">
				</image>
				<path class="st12" d="M226.4,525.7c3.6,0,7.1-0.6,10.5-1.8c2.8-1.2,5.4-2.7,7.8-4.6l1.5,5.1h28.1c-2.3-5.3-3.5-13.7-3.8-25
					v-21.8c0-13.3-4-22.1-12.4-26.6s-18.7-6.8-30.7-6.8c-6.2,0.1-12.5,0.7-18.6,1.7v18.4c4.2-2,7.2-3.3,9.1-4.1
					c3.6-1.4,7.4-2.2,11.2-2.3c5.1,0,8.9,1.7,11.2,5.3c1.4,2.4,2.1,5.2,2,8c-5.1,1-10.2,2.4-15.2,4c-6.3,2-12.2,5.3-17.1,9.8
					c-5.7,5.1-8.5,11.1-8.5,17.7c-0.1,5.6,1.8,11.1,5.6,15.4C211.7,523.3,218.1,525.7,226.4,525.7z M234.5,487.7
					c2-1.6,4.9-2.7,8.9-3.1v24c-2.7,2.2-4.9,3.1-6.8,3.1c-1.9,0-3.8-0.7-5.2-2c-1.9-1.7-2.9-4.4-2.9-8.1
					C228.4,495.6,230.4,490.9,234.5,487.7L234.5,487.7z"/>
			</g>
			<g id="_Group_8">
				
					<image style="overflow:visible;opacity:0.2;enable-background:new    ;" width="510" height="587" xlink:href="E850012BA8F7F06D.png"  transform="matrix(0.2395 0 0 0.2395 629.5916 405.9805)">
				</image>
				<path class="st12" d="M679.2,478.5c6.2,0.1,12.3-0.2,18.5-0.9c9.5-1.3,16.9-4.2,22.1-8.8c6.3-5.7,9.9-13.8,9.7-22.3
					c0.2-6.2-1.7-12.2-5.3-17.2c-4.1-5.5-10.1-9.6-18-12.1c-5.9-2-14.1-2.9-24.8-2.9h-43.7c1.9,3.3,3.6,6.8,5.2,10.3
					c0.6,0.6,1,5.1,1,13v58.5c0,5-0.4,14.6-0.9,28.6h38.1c-1.8-2.6-3.2-5.4-4.4-8.3c-1-2.8-1.5-8.1-1.5-16.4v-21.3H679.2z
					 M675.2,430.1h3c7.7,0,13,1.6,15.8,5c2.4,3.1,3.6,6.9,3.5,10.8c0.1,3.9-1.1,7.7-3.3,10.8c-1.9,2.8-4.7,4.4-8.5,5.2
					c-1.9,0.5-5.5,0.6-10.5,0.7L675.2,430.1z"/>
			</g>
			<g id="_Group_9">
				
					<image style="overflow:visible;opacity:0.2;enable-background:new    ;" width="431" height="464" xlink:href="E850012BA8F7F06F.png"  transform="matrix(0.2394 0 0 0.2394 886.6316 437.1715)">
				</image>
				<path class="st12" d="M952.1,522.8c5-2.3,9.7-5.1,14-8.4v-17c-2.7,3-5.6,5.8-8.7,8.4c-5,3.6-10,5.5-15.1,5.5
					c-3.9,0.1-7.7-1.1-10.8-3.5c-2.5-2.1-4.7-6-6.8-11.9l42.9-15c0-3.3-0.3-6-0.5-8.1c-0.6-4.8-2.4-9.4-5.3-13.4
					c-6.5-9.5-15.8-14.3-28.1-14.3c-7.1-0.1-14,1.9-20,5.5c-5.5,3.2-10.1,7.8-13.2,13.4c-3.9,6.9-5.9,14.7-5.9,22.7
					c0,15.6,6.2,26.8,18.4,34c6.5,3.6,13.8,5.5,21.2,5.5C940.4,526.2,946.5,525,952.1,522.8z M922.7,472.5c0.5-6.1,2-10.1,4.4-12.1
					c1.6-1.4,3.7-2.2,5.8-2.2c1.5,0,2.9,0.6,3.9,1.6c2,1.8,3,5.1,3,9.4c0.1,2.1-0.3,4.2-1.3,6.1c-0.7,1.1-2.1,2-4.3,2.9l-11.8,4
					C922.5,477.1,922.6,473.8,922.7,472.5L922.7,472.5z"/>
			</g>
			<g id="_Group_10">
				
					<image style="overflow:visible;opacity:0.2;enable-background:new    ;" width="397" height="466" xlink:href="93902B4F6BD5BDCC.png"  transform="matrix(0.2394 0 0 0.2394 812.2316 437.1832)">
				</image>
				<path class="st12" d="M866.9,478.2l-9.5-3.9c-2.4-1.1-4.5-2.5-6.5-4.2c-1.4-1-2.3-2.7-2.3-4.4c0-1.3,0.5-2.5,1.3-3.5
					c1.5-1.8,4.4-2.6,8.7-2.6c3.4,0,6.9,0.7,10,1.9c2.5,0.9,6.1,3,10.8,6.1l-0.7-20.2c-6.3-1.3-12.7-2-19.1-2.1
					c-13.7,0-24,3.8-30.6,11.1c-4.6,5-6.8,10.3-6.8,16c0,8.4,6.1,15,18.6,19.6c12.1,4.8,18.2,9.3,18.2,13.4c0,1.6-0.6,3.2-1.7,4.3
					c-1.6,1.9-4.5,2.9-8.5,2.9c-6-0.1-11.9-1.7-17.1-4.6c-3.8-2-7.5-5.3-11.4-10.1v23.7c10.9,3.2,20.6,4.9,29.2,4.9
					c4.9,0.1,9.7-0.5,14.5-1.8c5.7-1.2,10.1-3.3,13.1-6.2c5.2-4.6,8.1-11.2,8-18.1C885.3,490.8,879.2,483.3,866.9,478.2z"/>
			</g>
			
				<image style="overflow:visible;opacity:0.2;enable-background:new    ;" width="397" height="466" xlink:href="93902B4F6BD5BDCB.png"  transform="matrix(0.2394 0 0 0.2394 382.8716 437.1832)">
			</image>
			<path class="st12" d="M437.3,478.2l-9.5-3.9c-2.4-1.1-4.5-2.5-6.5-4.2c-1.4-1.1-2.2-2.7-2.3-4.4c0-1.3,0.4-2.5,1.3-3.5
				c1.5-1.8,4.5-2.6,8.7-2.6c3.5,0,6.9,0.6,10.1,1.9c2.4,0.8,5.6,2.8,9.9,5.6l0.9,0.6l-0.6-20.2c-5.2-1-10.5-1.7-15.9-2
				c-1.1-0.1-2.3-0.1-3.3-0.1c-13.7,0-24,3.8-30.7,11.1c-4.6,5-6.8,10.3-6.8,16c0,8.4,6.1,15,18.6,19.6c12,4.8,18.2,9.3,18.2,13.4
				c0,1.6-0.7,3.2-1.8,4.3c-1.6,1.9-4.5,2.9-8.4,2.9c-6-0.1-11.9-1.7-17.2-4.6c-3.8-2-7.4-5.3-11.2-10.1v23.7
				c10.8,3.2,20.5,4.9,29.2,4.9c4.9,0.1,9.7-0.6,14.4-1.8c5.7-1.2,10.1-3.3,13-6.2c5.2-4.6,8.2-11.2,8.1-18.1
				C455.7,490.8,449.5,483.3,437.3,478.2z"/>
			<g id="_Group_11">
				
					<image style="overflow:visible;opacity:0.2;enable-background:new    ;" width="2242" height="829" xlink:href="93902B4F6BD5BDC4.png"  transform="matrix(0.2397 0 0 0.2397 345.8761 536.0424)">
				</image>
				<path class="st12" d="M808.5,703.1c6.8-6.3,12.7-17.2,18-32.5c16-7.3,27.7-14.7,34.9-21.8v-9.9c-8.4,9.4-19.2,17.1-32.2,23.3
					l22.4-68l-23.6,4.4l-9.8,27.3c-2.6,7.7-6.5,14.9-11.5,21.3c-4.5,5.9-8.6,8.8-12.2,8.8s-5.3-2.7-5.3-7.8c0-6.4,2.5-15.7,7.4-28.1
					l10.8-25.8l-24.9,4.4l-8.4,22.1c-2.2,5.9-3.9,12.1-4.8,18.4c-6.4,6.2-10.6,10.2-12.5,11.5c-1.6,1.4-3.7,2.2-5.9,2.2
					c-1.8,0-3.5-0.8-4.6-2.2c-1.2-1.7-1.8-3.8-1.6-5.9c0.1-3,0.6-6.1,1.4-9c1-3.4,3.2-9.8,6.6-19.1l8-22.3l-7.8,0.4
					c-7.2,13.6-15.4,21-24.9,22c2.6-6.7,3.8-11.9,3.8-15.7c0-4.6-2.2-6.8-6.7-6.8c-5.2,0-9.4,2.5-12.3,7.5
					c-3.1,5.2-4.6,9.9-4.6,14.5c0,4.3,2.5,7.6,7.4,9.8c-3.1,4.6-6.5,9-10.3,13l0,0c-7,6.9-12.2,11.6-15.6,13.5
					c-3.2,2.1-6.9,3.3-10.8,3.3c-9.8,0-15.7-5.8-18-17.1c25.3-7.4,37.8-17.2,37.8-29.1c0.1-4.2-1.6-8.2-4.8-11
					c-3.3-2.8-7.5-4.2-12.8-4.2c-10.2,0-19.7,5-28.1,14.8c-7.6,9.2-11.7,19.2-12.4,30.2c-5.4,5.7-9.4,9.5-12.2,11.3
					c-2.6,1.7-5.6,2.7-8.7,2.8c-2.1,0-4.1-0.9-5.3-2.5c-1.4-1.9-2.1-4.2-2-6.5c0-4,1-9.4,2.9-16.2l5.8-19.4l13.3-1.2l2.9-13.3
					l-12.2,0.6l8.9-30.2l-23,4.7l-8,27.1l-8.1,0.5l-2.7,13.6l6.5-0.3l-3.8,13.2c-1.5,5.2-2.7,10.4-3.6,15.7
					c-5.5,5.9-9.6,9.7-12.4,11.6c-2.6,1.7-5.6,2.7-8.7,2.8c-2.1,0.1-4.1-0.9-5.3-2.5c-1.4-1.9-2.1-4.2-2-6.5c0-4,1-9.4,3-16.2
					l5.8-19.4l13.3-1.2l2.9-13.3l-12.1,0.6l8.9-30.2l-23,4.7l-8.1,27.1l-8.2,0.5l-2.7,13.6l6.5-0.3l-3.7,13.2
					c-1.5,5.2-2.7,10.4-3.6,15.8l-7.1,6.6c-5.8,5.4-10.2,8.2-13.2,8.2c-3.7,0-5.5-2.6-5.5-8.1c0-2.8,1-7.8,3.1-14.9
					c2-6.9,5.7-19.3,11.1-36.7l-23.3,4.8l-11.3,37c-1.1,3.6-3.8,7.9-8.3,12.7c-4.4,5-8,7.4-11.1,7.4c-4.1,0-6.3-2.8-6.3-8.3
					c0-8,4.8-25.8,14.3-53.5l-23,4.6c-5.9,16.1-9.6,29.5-11.2,40.2c-5.6,6.5-11,11.3-16.4,14.3c-5.4,3.2-11.6,4.9-17.9,4.8
					c-10,0.2-19.5-4.1-25.9-11.7c-6.7-7.7-10.2-17.8-10.2-29.9c0-9.4,2.1-19.5,6.1-30.1s9.1-19.2,15.1-25.9s11.8-10.1,17.1-10.1
					c3.5-0.1,6.8,1.5,8.9,4.2c2.1,2.8,3.2,6.7,3.2,11.6c0,6.8-2,13.4-5.8,19c-3.9,5.7-8.3,8.7-12.8,8.7c-3.2,0-5.8-1.7-7.6-5.2
					c-2.3,2.3-3.6,5.4-3.7,8.7c-0.1,3.5,1.5,6.9,4.3,9c2.8,2.4,6.5,3.5,10.9,3.5c8.7,0,16-3.9,22.3-11.6c6.3-7.7,9.7-17.3,9.5-27.3
					c0-8-2.6-14.6-7.8-19.6s-12.1-7.5-20.4-7.5c-9.9,0-20.1,3.6-30.3,10.9c-21.6,16.1-34.5,41.5-34.6,68.5
					c0,13.5,4.4,24.8,13.2,33.5s20.1,12.9,33.8,12.9c18.7,0,34.8-6.5,48.2-20c0,6.2,1.3,11.1,4,14.8c2.4,3.4,6.3,5.3,10.5,5.2
					c5.3-0.1,10.5-1.9,14.7-5c4.9-3.2,10.5-8.3,16.8-15.5c0,6.3,1.2,11.3,3.7,15c2.3,3.5,6.3,5.5,10.5,5.3c4.1,0,8.6-1.7,13.8-5.1
					c6.4-4.6,12.5-9.7,18.2-15.2c0.3,5.7,1.8,10.4,4.7,14.1c2.6,4,7.2,6.4,12,6.2c4.6,0,9.7-1.7,15-5.1c5.1-3.3,11.1-8.4,17.9-15.3
					c0.4,5.8,1.8,10.5,4.7,14.2c2.6,4,7,6.3,11.8,6.2c4.7,0,9.8-1.7,15.1-5.1s11.5-8.8,18.7-16c0.8,5.1,3.1,9.9,6.6,13.7
					c4.8,5,11.1,7.4,18.8,7.4c6.7,0.1,13.4-1.7,19.2-5.1c5.9-3.5,12.3-8.8,19.7-16h0.1c8-8,13.9-15.5,17.6-22.4
					c4.9-0.8,9.6-2.4,14-4.7c-8.6,13.7-12.9,24.7-12.9,32.9c-0.2,4,1.1,7.9,3.5,11.1c2.1,2.7,5.4,4.3,8.9,4.3
					c7.7,0,18.5-6.6,32.3-20.3c-0.1,4.9,1.4,9.6,4.1,13.6c2.4,3.5,6.5,5.5,10.7,5.3c8.2,0,17.8-5.8,28.5-18.1l-5.2,18.5
					c-20.7,9.4-31.1,19.7-31.1,31.1c0,3.8,1.1,6.7,3.3,8.9c2.1,2.4,5,3.5,8.7,3.5C795,712.7,801.9,709.5,808.5,703.1z M665.1,610.1
					c3.5-5.9,7.2-8.7,10.8-8.7c4,0,6.1,2.7,6.1,8.3c0,11.2-7.3,18.9-22.1,23.2C660,623.5,661.7,615.9,665.1,610.1L665.1,610.1z
					 M782.1,700.3c0-3.9,1.9-7.7,5.7-11.7s9.1-7.6,16.3-10.9c-5.1,18.9-10.8,28.4-17.1,28.4C783.8,706.1,782.1,704.1,782.1,700.3
					L782.1,700.3z"/>
			</g>
		</g>
	</g>
</g>
</svg>
